<svg width="574" height="452" viewBox="0 0 574 452" fill="none" xmlns="http://www.w3.org/2000/svg">
<path d="M93.3086 450.849C93.3086 451.487 93.652 451.999 94.0794 451.999H478.479C478.91 451.999 479.25 451.487 479.25 450.849C479.25 450.211 478.907 449.699 478.479 449.699H94.0794C93.652 449.699 93.3086 450.211 93.3086 450.849Z" fill="#CCCCCC"/>
<path d="M232.943 447.057H219.219V449.523H232.943V447.057Z" fill="#B6B3C5"/>
<path d="M354.443 447.47H340.719V449.935H354.443V447.47Z" fill="#B6B3C5"/>
<path d="M306.511 337.346C305.747 342.052 303.366 346.329 299.793 349.415C296.219 352.5 291.686 354.194 287 354.194C282.314 354.194 277.78 352.5 274.207 349.415C270.633 346.329 268.253 342.052 267.488 337.346H217.57V447.467H356.431V337.346H306.511Z" fill="#D6D6E3"/>
<path d="M356.835 438.743H217.977V442.576H356.835V438.743Z" fill="#090814"/>
<path d="M566.259 340.225H7.74116C5.68877 340.223 3.72111 339.392 2.26985 337.914C0.818598 336.437 0.00228169 334.434 0 332.345L0 7.88078C0.00209157 5.79145 0.818324 3.78829 2.2696 2.31084C3.72087 0.833387 5.68865 0.00232298 7.74116 0H566.259C568.311 0.00251576 570.279 0.83354 571.73 2.31079C573.181 3.78804 573.998 5.7909 574 7.88005V332.345C573.998 334.434 573.181 336.437 571.73 337.914C570.279 339.391 568.311 340.222 566.259 340.225Z" fill="#090814"/>
<path d="M558.837 11.0099H12.2852V324.937H558.837V11.0099Z" fill="#F7F7F7"/>
<path d="M286.671 76.1004C296.192 76.1004 303.911 68.2429 303.911 58.5502C303.911 48.8575 296.192 41 286.671 41C277.149 41 269.43 48.8575 269.43 58.5502C269.43 68.2429 277.149 76.1004 286.671 76.1004Z" fill="#B88C26"/>
<path d="M367.127 159.464H205.494C199.146 159.464 194 164.702 194 171.164C194 177.626 199.146 182.864 205.494 182.864H367.127C373.475 182.864 378.621 177.626 378.621 171.164C378.621 164.702 373.475 159.464 367.127 159.464Z" fill="#C6A680"/>
<path d="M367.127 124.364H205.494C199.146 124.364 194 129.602 194 136.064C194 142.525 199.146 147.764 205.494 147.764H367.127C373.475 147.764 378.621 142.525 378.621 136.064C378.621 129.602 373.475 124.364 367.127 124.364Z" fill="#E6E6E6"/>
<path d="M206.931 140.451C209.312 140.451 211.242 138.487 211.242 136.064C211.242 133.641 209.312 131.676 206.931 131.676C204.551 131.676 202.621 133.641 202.621 136.064C202.621 138.487 204.551 140.451 206.931 140.451Z" fill="white"/>
<path d="M221.299 140.451C223.679 140.451 225.609 138.487 225.609 136.064C225.609 133.641 223.679 131.676 221.299 131.676C218.918 131.676 216.988 133.641 216.988 136.064C216.988 138.487 218.918 140.451 221.299 140.451Z" fill="white"/>
<path d="M235.666 140.451C238.046 140.451 239.976 138.487 239.976 136.064C239.976 133.641 238.046 131.676 235.666 131.676C233.285 131.676 231.355 133.641 231.355 136.064C231.355 138.487 233.285 140.451 235.666 140.451Z" fill="white"/>
<path d="M250.033 140.451C252.413 140.451 254.343 138.487 254.343 136.064C254.343 133.641 252.413 131.676 250.033 131.676C247.652 131.676 245.723 133.641 245.723 136.064C245.723 138.487 247.652 140.451 250.033 140.451Z" fill="white"/>
<path d="M264.4 140.451C266.781 140.451 268.71 138.487 268.71 136.064C268.71 133.641 266.781 131.676 264.4 131.676C262.02 131.676 260.09 133.641 260.09 136.064C260.09 138.487 262.02 140.451 264.4 140.451Z" fill="white"/>
<path d="M278.767 140.451C281.148 140.451 283.077 138.487 283.077 136.064C283.077 133.641 281.148 131.676 278.767 131.676C276.387 131.676 274.457 133.641 274.457 136.064C274.457 138.487 276.387 140.451 278.767 140.451Z" fill="white"/>
<path d="M293.134 140.451C295.515 140.451 297.445 138.487 297.445 136.064C297.445 133.641 295.515 131.676 293.134 131.676C290.754 131.676 288.824 133.641 288.824 136.064C288.824 138.487 290.754 140.451 293.134 140.451Z" fill="white"/>
<path d="M307.502 140.451C309.882 140.451 311.812 138.487 311.812 136.064C311.812 133.641 309.882 131.676 307.502 131.676C305.121 131.676 303.191 133.641 303.191 136.064C303.191 138.487 305.121 140.451 307.502 140.451Z" fill="white"/>
<path d="M321.869 140.451C324.249 140.451 326.179 138.487 326.179 136.064C326.179 133.641 324.249 131.676 321.869 131.676C319.488 131.676 317.559 133.641 317.559 136.064C317.559 138.487 319.488 140.451 321.869 140.451Z" fill="white"/>
<path d="M342.704 109.002H308.223V114.852H342.704V109.002Z" fill="#E6E6E6"/>
<path d="M344.141 109.002H375.749C376.511 109.002 377.242 109.31 377.781 109.859C378.32 110.407 378.622 111.151 378.622 111.927C378.622 112.703 378.32 113.447 377.781 113.995C377.242 114.544 376.511 114.852 375.749 114.852H344.141V109.002Z" fill="#871F34"/>
<path d="M275.178 109.002H306.786V114.852H275.178C274.416 114.852 273.685 114.544 273.146 113.995C272.607 113.447 272.305 112.703 272.305 111.927C272.305 111.151 272.607 110.407 273.146 109.859C273.685 109.31 274.416 109.002 275.178 109.002Z" fill="#E6E6E6"/>
<path d="M200.379 118.421C203.902 118.421 206.758 115.513 206.758 111.927C206.758 108.341 203.902 105.433 200.379 105.433C196.856 105.433 194 108.341 194 111.927C194 115.513 196.856 118.421 200.379 118.421Z" fill="#871F34"/>
<path d="M199.323 115.118C199.213 115.118 199.104 115.091 199.006 115.04C198.907 114.99 198.821 114.916 198.756 114.826L197.015 112.464C196.956 112.388 196.912 112.301 196.886 112.208C196.86 112.115 196.853 112.017 196.865 111.921C196.877 111.825 196.908 111.733 196.956 111.649C197.003 111.565 197.067 111.492 197.143 111.434C197.219 111.376 197.306 111.334 197.398 111.311C197.491 111.288 197.587 111.283 197.681 111.299C197.775 111.314 197.865 111.348 197.945 111.399C198.026 111.451 198.096 111.518 198.15 111.597L199.289 113.142L202.213 108.677C202.318 108.518 202.481 108.407 202.666 108.37C202.85 108.333 203.042 108.372 203.199 108.478C203.356 108.585 203.464 108.751 203.501 108.939C203.537 109.127 203.499 109.322 203.394 109.482L199.914 114.797C199.851 114.893 199.766 114.972 199.667 115.028C199.568 115.084 199.457 115.115 199.343 115.118H199.323Z" fill="white"/>
<path d="M422.734 124.115C422.734 124.115 417.046 123.106 408.611 115.232C401.938 109.004 392.937 110.229 389.467 111.014C389.348 111.041 389.241 111.103 389.159 111.195C389.076 111.286 389.023 111.4 389.006 111.523C388.989 111.647 389.009 111.772 389.063 111.883C389.117 111.995 389.203 112.086 389.309 112.146C390.712 112.935 392.886 114.09 393.905 114.221C393.905 114.221 391.803 116.46 394.037 117.658C394.305 117.793 394.604 117.849 394.9 117.82C395.197 117.791 395.48 117.677 395.717 117.491C396.792 116.684 399.777 118.517 404.104 119.472C404.104 119.472 420.971 137.44 424.895 134.393L422.734 124.115Z" fill="#ED9DA0"/>
<path d="M451.773 99.6854C451.773 99.6854 453.343 106.55 451.773 111.395L458.835 112.405L465.111 109.174V104.935C465.111 104.935 462.169 98.4743 462.954 91.0033L451.773 99.6854Z" fill="#ED9DA0"/>
<path d="M469.449 252.728C469.449 252.728 474.568 263.024 473.764 269.887C472.961 276.75 480.433 270.695 479.649 266.657C479.482 271.545 481.844 249.54 482.949 244.387C483.069 243.83 482.983 243.248 482.709 242.752C482.435 242.256 481.991 241.883 481.465 241.706C479.107 240.907 475.159 239.928 473.176 241.425C470.247 243.642 469.449 252.728 469.449 252.728Z" fill="#090814"/>
<path d="M452.363 259.778C452.363 259.778 445.694 268.661 443.929 268.863C442.163 269.065 440.987 271.892 443.929 272.497C449.803 273.55 455.845 272.943 461.411 270.742C461.968 270.518 462.436 270.108 462.74 269.578C463.044 269.048 463.166 268.429 463.087 267.819L461.962 259.172L452.363 259.778Z" fill="#090814"/>
<path d="M441.379 169.082L434.983 166.376C435.861 174.065 435.835 181.835 434.907 189.518V217.169C434.907 217.169 434.783 219.605 439.695 223.147C444.847 226.833 449.811 230.788 454.569 234.997L472.367 254.451C472.367 254.451 478.016 246.362 477.034 241.113C477.034 241.113 466.679 232.9 465.109 226.642C464.21 223.06 459.647 220.058 455.912 218.171C453.564 216.997 451.676 215.032 450.563 212.601C449.45 210.171 449.178 207.422 449.793 204.81C450.011 203.903 450.348 203.03 450.795 202.216C453.933 196.563 458.445 183.844 458.445 183.844L449.814 166.912L441.379 169.082Z" fill="#090814"/>
<path d="M450.794 260.396C450.794 260.396 462.367 262.415 462.759 263.627C463.151 264.838 462.759 262.012 462.759 262.012C462.759 262.012 469.428 241.217 467.877 222.849C466.327 204.481 469.839 192.363 469.839 192.363C469.839 192.363 473.958 178.635 471.604 170.761C469.251 162.887 444.535 166.319 444.535 166.319C444.535 166.319 453.165 187.114 452.969 197.007C452.969 197.007 453.95 226.886 455.715 230.319C455.698 230.302 452.952 259.576 450.794 260.396Z" fill="#090814"/>
<path d="M452.156 104.935C452.156 104.935 453.333 112.396 465.101 109.175L457.272 170.546C457.272 170.546 434.52 171.353 434.716 168.527L439.406 131.383L452.156 104.935Z" fill="#F7F7F7"/>
<path d="M452.462 104.734C450.956 106.038 449.117 106.87 447.165 107.129C445.447 107.276 443.783 107.819 442.296 108.718C440.533 109.803 438.568 111.38 437.972 113.3C436.771 117.068 425.848 125.235 422.418 123.917L424.659 134.601C424.659 134.601 436.771 132.703 438.486 128.558L435.574 168.89H438.146C438.146 168.89 439.518 157.964 440.547 155.704C441.576 153.444 443.634 141.011 443.806 137.997C443.977 134.983 446.549 117.653 448.779 114.656L452.465 105.896L452.462 104.734Z" fill="#871F34"/>
<path d="M453.931 102.719C459.781 102.719 464.523 97.8381 464.523 91.8169C464.523 85.7958 459.781 80.9147 453.931 80.9147C448.082 80.9147 443.34 85.7958 443.34 91.8169C443.34 97.8381 448.082 102.719 453.931 102.719Z" fill="#ED9DA0"/>
<path d="M443.286 82.5334C443.223 80.8361 443.826 78.7641 444.277 79.1743C444.593 77.4417 446.505 77.6984 447.06 78.1535C447.001 77.087 450.282 75.4174 450.346 76.2038C450.349 76.3337 450.401 76.4573 450.491 76.5482C450.59 76.613 450.705 76.6442 450.822 76.6373C451.842 76.6778 452.863 76.6549 453.879 76.5687C455.13 76.4238 456.387 76.3549 457.646 76.3622C461.581 76.5322 465.537 79.2991 466.418 83.2487C466.601 84.207 466.697 85.1807 466.706 86.1573L466.898 91.1429C467.01 92.5977 466.952 94.0611 466.726 95.5017C466.454 96.8314 465.9 98.083 465.104 99.1671C464.307 100.251 463.289 101.141 462.12 101.773C460.7 99.6549 460.574 96.9323 460.082 94.4087C460.004 93.8266 459.793 93.2717 459.468 92.7893C459.299 92.5506 459.063 92.3717 458.792 92.2774C458.52 92.1831 458.227 92.178 457.952 92.2628C457.421 92.4816 457.193 93.3158 457.634 93.6888C457.24 94.1669 456.504 93.8104 456.06 93.3851C454.819 92.1724 453.964 90.6002 453.609 88.8764C453.432 88.0094 453.255 86.9409 452.428 86.6442C452.143 86.5637 451.846 86.5431 451.554 86.5834C449.83 86.705 447.134 87.4384 445.466 86.8748C443.931 86.3578 443.286 84.0284 443.286 82.5334Z" fill="#090814"/>
<path d="M464.427 102.833L477.078 114.038C477.078 114.038 484.532 121.912 481.393 134.631C481.393 134.631 480.019 153.205 478.451 154.013C478.451 154.013 472.959 165.319 472.567 176.019L461.269 171.639L454.074 169.755L455.105 125.757C455.105 125.757 465.998 106.248 464.427 102.833Z" fill="#871F34"/>
<path d="M470.212 150.16C470.212 150.16 473.35 147.939 478.45 153.996L465.897 177.415L461.68 170.863C461.68 170.863 470.604 152.784 470.212 150.16Z" fill="#ED9DA0"/>
<path d="M125.988 95.5385L126.182 107.792L138.892 107.832C138.892 107.832 135.666 98.2393 137.111 96.2335C138.555 94.2277 125.988 95.5385 125.988 95.5385Z" fill="#ED9DA0"/>
<path d="M152.709 192.277L151.932 217.463L143.637 246.969C143.637 246.969 145.451 252.006 144.155 253.207C142.859 254.407 136.898 256.565 136.898 256.565L141.822 193.717L152.709 192.277Z" fill="#090814"/>
<path d="M134.703 253.082C134.703 253.082 131.746 259.105 135.887 259.652C140.028 260.2 159.153 261.659 157.97 258.556C156.788 255.454 142.394 252.535 142.394 252.535L134.703 253.082Z" fill="#090814"/>
<path d="M123.684 169.968C123.684 169.968 126.794 185.56 128.868 188.2C130.941 190.839 127.829 210.028 127.829 210.028C127.829 210.028 123.164 237.614 125.237 241.931C127.311 246.249 126.793 244.81 126.533 247.209C126.273 249.608 125.756 251.527 126.533 253.688C127.31 255.849 127.31 255.608 127.57 256.807C127.83 258.006 127.57 264.483 127.57 264.483C127.57 264.483 138.715 268.081 140.529 262.804C140.529 262.804 137.937 259.446 138.715 256.807C139.526 254.152 139.961 251.411 140.011 248.652V243.614L151.934 202.353L154.785 187.48C154.785 187.48 154.008 172.368 151.157 170.928C148.305 169.489 123.684 169.968 123.684 169.968Z" fill="#090814"/>
<path d="M128.349 263.281C128.349 263.281 124.461 271.196 129.904 271.916C135.348 272.636 160.489 274.555 158.932 270.477C157.376 266.399 138.457 262.561 138.457 262.561L128.349 263.281Z" fill="#090814"/>
<path d="M132.151 100.894C138.441 100.894 143.54 96.1752 143.54 90.3538C143.54 84.5323 138.441 79.8131 132.151 79.8131C125.861 79.8131 120.762 84.5323 120.762 90.3538C120.762 96.1752 125.861 100.894 132.151 100.894Z" fill="#ED9DA0"/>
<path d="M144.937 114.556C144.937 114.556 135.866 103.762 128.867 108.319C121.868 112.876 119.277 123.672 119.277 123.672L120.833 153.898C120.833 153.898 124.72 158.216 122.388 161.094C120.055 163.973 118.759 163.253 120.574 165.412C122.388 167.572 124.462 169.251 123.684 169.97C122.907 170.689 124.462 171.169 124.462 171.169L151.936 171.889C151.936 171.889 151.158 170.929 153.491 168.05C155.824 165.172 152.973 161.334 153.491 159.895C154.009 158.457 154.528 160.135 154.787 156.777C155.045 153.419 144.937 114.556 144.937 114.556Z" fill="#E6E6E6"/>
<path d="M118.367 102.441C118.367 102.441 118.108 107.239 118.367 107.958C118.626 108.676 118.885 109.397 118.367 110.117C117.848 110.836 118.108 113.235 118.626 113.475C119.144 113.714 117.589 115.874 118.107 117.313C118.426 118.161 118.861 118.967 119.403 119.712C119.662 120.192 120.079 121.052 120.079 121.052C120.079 121.052 127.697 106.04 133.918 109.638C137.379 111.7 141.128 113.315 145.063 114.436C145.063 114.436 141.697 97.6447 118.367 102.441Z" fill="#D6D6E3"/>
<path d="M129.643 113.595C129.643 113.595 121.349 114.314 121.867 124.389C122.385 134.464 121.09 150.297 121.09 150.297C121.09 150.297 135.345 170.447 137.678 171.887C140.011 173.327 140.27 173.086 140.011 174.286C139.751 175.486 139.492 176.445 140.529 177.404C141.141 177.975 141.84 178.46 142.603 178.844C142.603 178.844 150.897 176.205 150.119 173.807C149.341 171.408 145.713 167.569 145.713 167.569C145.713 167.569 139.492 158.214 139.233 156.775C138.975 155.336 138.975 155.576 138.196 154.856C137.418 154.136 135.346 151.258 135.346 149.819V145.259L137.518 120.902C137.617 119.91 137.487 118.91 137.138 117.968C136.789 117.025 136.229 116.162 135.494 115.434C134.755 114.709 133.835 114.162 132.815 113.842C131.795 113.521 130.706 113.436 129.643 113.595Z" fill="#E6E6E6"/>
<path opacity="0.1" d="M136.313 134.377L136.176 150.88L144.625 162.613L137.712 149.46L136.313 134.377Z" fill="black"/>
<path d="M125.922 98.3626C129.009 98.2689 129.289 97.5142 132.377 97.4205C133.36 97.3909 134.52 97.2661 134.995 96.4689C135.133 96.1704 135.195 95.8462 135.175 95.5218C135.155 95.1974 135.054 94.8818 134.88 94.5996C134.528 94.0394 134.211 93.4611 133.929 92.8675C133.76 92.4021 133.715 91.9055 133.8 91.4207C133.884 90.9359 134.095 90.4773 134.414 90.0848C134.732 89.6922 135.15 89.3774 135.63 89.1675C136.109 88.9577 136.637 88.8591 137.167 88.8803C138.107 88.9178 138.989 89.3268 139.926 89.4014C141.211 89.5039 144.051 85.5772 143.46 84.5167C142.884 83.4842 141.726 82.7054 141.543 81.5558C141.424 80.8039 140.983 80.4702 141.029 79.7113C141.097 78.5861 138.792 80.7095 139.356 79.7113C140.741 77.2622 127.696 74.2257 125.549 77.2937C124.747 78.4401 123.316 78.362 122.041 79.0506C121.205 79.502 119.095 81.0588 118.616 82.0292C118.175 83.0194 117.966 84.0851 118.004 85.1555C117.985 90.1335 118.805 94.7127 123.143 97.6553" fill="#090814"/>
</svg>
