<svg width="560" height="480" viewBox="0 0 560 480" fill="none" xmlns="http://www.w3.org/2000/svg" role="img" aria-labelledby="heroTitle">
  <title id="heroTitle">Servicio social y residencias profesionales</title>
  <rect width="560" height="480" fill="#F8F8F8"/>
  <rect x="48" y="56" width="464" height="368" rx="12" fill="#FFFFFF" stroke="#ECECEC" stroke-width="2"/>
  <rect x="88" y="108" width="180" height="12" rx="4" fill="#6B2340"/>
  <rect x="88" y="136" width="140" height="8" rx="4" fill="#B8956A"/>
  <rect x="88" y="168" width="220" height="8" rx="4" fill="#D4D4D4"/>
  <rect x="88" y="188" width="196" height="8" rx="4" fill="#D4D4D4"/>
  <rect x="88" y="208" width="208" height="8" rx="4" fill="#D4D4D4"/>
  <rect x="88" y="252" width="96" height="36" rx="8" fill="#6B2340"/>
  <rect x="196" y="252" width="96" height="36" rx="8" fill="#FFFFFF" stroke="#6B2340" stroke-width="2"/>
  <rect x="320" y="120" width="152" height="112" rx="8" fill="#FAFAFA" stroke="#ECECEC" stroke-width="2"/>
  <rect x="344" y="144" width="104" height="64" rx="4" fill="#6B2340" opacity="0.12"/>
  <rect x="360" y="160" width="72" height="32" rx="4" fill="#6B2340"/>
  <rect x="320" y="256" width="72" height="72" rx="8" fill="#B8956A" opacity="0.2"/>
  <rect x="400" y="256" width="72" height="72" rx="8" fill="#6B2340" opacity="0.15"/>
  <rect x="360" y="344" width="72" height="48" rx="8" fill="#FAFAFA" stroke="#ECECEC" stroke-width="2"/>
  <circle cx="396" cy="368" r="10" fill="#B8956A"/>
</svg>
