<svg width="560" height="558" viewBox="0 0 560 558" fill="none" xmlns="http://www.w3.org/2000/svg">
<path d="M559.12 545.909C559.12 552.547 433.945 557.932 279.56 557.932C125.175 557.932 0 552.547 0 545.909C0 539.27 125.159 533.868 279.56 533.868C433.961 533.868 559.12 539.253 559.12 545.909Z" fill="black" fill-opacity="0.08"/>
<path d="M518.383 451.395C515.143 455.351 512.955 460.14 512.039 465.277L499.323 472.796V437.259L499.564 437.626L519.842 421.98C522.398 422.403 532.236 423.588 541.257 418.496C551.59 412.584 559.192 392.284 559.192 392.284C559.192 392.284 534.391 389.335 525.985 400.297C521.375 405.988 518.921 413.272 519.092 420.753L499.323 436.017V409.777C503.024 407.96 506.294 405.298 508.899 401.985C511.503 398.672 513.376 394.789 514.381 390.619C517.981 375.848 498.775 346.744 498.775 346.744C498.775 346.744 478.765 376.695 482.713 391.889C486.099 404.755 495.214 408.818 497.931 409.777V466.702L483.703 454.188C484.025 451.197 484.279 441.816 476.355 432.406C466.745 421.021 441.141 421.867 441.141 421.867C441.141 421.867 451.942 444.637 461.217 452.241C469.248 458.872 480.357 456.163 483.021 455.373L498.038 468.564V485.86H475.673L484.774 545.817H512.079L521.18 485.86H499.323V474.418L513.297 466.165C516.696 467.153 526.199 469.213 535.194 464.473C546.397 458.59 555.592 445.893 555.592 445.893C555.592 445.893 528.783 438.74 518.383 451.395Z" fill="#918989" fill-opacity="0.25"/>
<path d="M484.6 545.747L475.23 485.789H521.407L512.038 545.747H484.6Z" fill="#871F34"/>
<g filter="url(#filter0_d_1082_871)">
<path d="M453.638 0.768433H86.2031C75.8629 0.768433 67.4805 9.60894 67.4805 20.5143V264.729C67.4805 275.635 75.8629 284.475 86.2031 284.475H453.638C463.978 284.475 472.361 275.635 472.361 264.729V20.5143C472.361 9.60894 463.978 0.768433 453.638 0.768433Z" fill="white" stroke="#212121" stroke-width="1.53696" stroke-miterlimit="10" stroke-linecap="round"/>
<path d="M67.4805 19.6691C67.4805 9.48301 75.7379 1.22559 85.9239 1.22559H453.917C464.103 1.22559 472.361 9.48301 472.361 19.6691V26.6276H67.4805V19.6691Z" fill="#871F34"/>
<path d="M232.716 166.293H197.615C194.219 166.293 191.467 169.045 191.467 172.441V188.172C191.467 191.567 194.219 194.32 197.615 194.32H232.716C236.111 194.32 238.863 191.567 238.863 188.172V172.441C238.863 169.045 236.111 166.293 232.716 166.293Z" fill="#918989" fill-opacity="0.25"/>
<path d="M232.716 199.383H197.615C194.219 199.383 191.467 202.136 191.467 205.531V221.262C191.467 224.658 194.219 227.41 197.615 227.41H232.716C236.111 227.41 238.863 224.658 238.863 221.262V205.531C238.863 202.136 236.111 199.383 232.716 199.383Z" fill="#918989" fill-opacity="0.25"/>
<path d="M284.932 166.293H249.831C246.436 166.293 243.684 169.045 243.684 172.441V188.172C243.684 191.567 246.436 194.32 249.831 194.32H284.932C288.328 194.32 291.08 191.567 291.08 188.172V172.441C291.08 169.045 288.328 166.293 284.932 166.293Z" fill="#918989" fill-opacity="0.25"/>
<path d="M337.165 133.185H302.064C298.668 133.185 295.916 135.938 295.916 139.333V155.065C295.916 158.46 298.668 161.212 302.064 161.212H337.165C340.56 161.212 343.313 158.46 343.313 155.065V139.333C343.313 135.938 340.56 133.185 337.165 133.185Z" fill="#918989" fill-opacity="0.25"/>
<path d="M337.165 100.078H302.064C298.668 100.078 295.916 102.831 295.916 106.226V121.957C295.916 125.353 298.668 128.105 302.064 128.105H337.165C340.56 128.105 343.313 125.353 343.313 121.957V106.226C343.313 102.831 340.56 100.078 337.165 100.078Z" fill="#918989" fill-opacity="0.25"/>
<path d="M337.165 38.8932H302.064C298.668 38.8932 295.916 41.6457 295.916 45.041V55.7427C295.916 59.138 298.668 61.8905 302.064 61.8905H337.165C340.56 61.8905 343.313 59.138 343.313 55.7427V45.041C343.313 41.6457 340.56 38.8932 337.165 38.8932Z" fill="#B88C26"/>
<path d="M284.932 38.8932H249.831C246.436 38.8932 243.684 41.6457 243.684 45.041V55.7427C243.684 59.138 246.436 61.8905 249.831 61.8905H284.932C288.328 61.8905 291.08 59.138 291.08 55.7427V45.041C291.08 41.6457 288.328 38.8932 284.932 38.8932Z" fill="#B88C26"/>
<path d="M284.932 199.383H249.831C246.436 199.383 243.684 202.136 243.684 205.531V221.262C243.684 224.658 246.436 227.41 249.831 227.41H284.932C288.328 227.41 291.08 224.658 291.08 221.262V205.531C291.08 202.136 288.328 199.383 284.932 199.383Z" fill="#918989" fill-opacity="0.25"/>
<path d="M285.464 67.4113H250.363C246.967 67.4113 244.215 70.1637 244.215 73.5591V89.2903C244.215 92.6857 246.967 95.4382 250.363 95.4382H285.464C288.859 95.4382 291.612 92.6857 291.612 89.2903V73.5591C291.612 70.1637 288.859 67.4113 285.464 67.4113Z" fill="#918989" fill-opacity="0.25"/>
<path d="M284.932 100.078H249.831C246.436 100.078 243.684 102.831 243.684 106.226V121.957C243.684 125.353 246.436 128.105 249.831 128.105H284.932C288.328 128.105 291.08 125.353 291.08 121.957V106.226C291.08 102.831 288.328 100.078 284.932 100.078Z" fill="#918989" fill-opacity="0.25"/>
<path d="M285.071 133.448H249.97C246.575 133.448 243.822 136.201 243.822 139.596V155.327C243.822 158.723 246.575 161.475 249.97 161.475H285.071C288.466 161.475 291.219 158.723 291.219 155.327V139.596C291.219 136.201 288.466 133.448 285.071 133.448Z" fill="#918989" fill-opacity="0.25"/>
<rect x="249.918" y="142.015" width="7.11146" height="10.7081" rx="3.55573" fill="#871F34" fill-opacity="0.65"/>
<rect x="259.061" y="142.015" width="7.11146" height="10.7081" rx="3.55573" fill="#871F34" fill-opacity="0.65"/>
<rect x="268.205" y="142.015" width="7.11146" height="10.7081" rx="3.55573" fill="#871F34" fill-opacity="0.65"/>
<rect x="278.363" y="142.015" width="7.11146" height="10.7081" rx="3.55573" fill="#871F34" fill-opacity="0.65"/>
<path d="M337.165 199.383H302.064C298.668 199.383 295.916 202.136 295.916 205.531V221.262C295.916 224.658 298.668 227.41 302.064 227.41H337.165C340.56 227.41 343.313 224.658 343.313 221.262V205.531C343.313 202.136 340.56 199.383 337.165 199.383Z" fill="#918989" fill-opacity="0.25"/>
<path d="M128.267 66.9708H90.0326C86.6372 66.9708 83.8848 69.7233 83.8848 73.1187V88.8499C83.8848 92.2453 86.6372 94.9977 90.0326 94.9977H128.267C131.662 94.9977 134.414 92.2453 134.414 88.8499V73.1186C134.414 69.7233 131.662 66.9708 128.267 66.9708Z" fill="#918989" fill-opacity="0.25"/>
<path d="M128.704 133.448H90.4701C87.0747 133.448 84.3223 136.201 84.3223 139.596V155.327C84.3223 158.723 87.0747 161.475 90.4701 161.475H128.704C132.099 161.475 134.852 158.723 134.852 155.327V139.596C134.852 136.201 132.099 133.448 128.704 133.448Z" fill="#918989" fill-opacity="0.25"/>
<path d="M128.267 166.293H90.0326C86.6372 166.293 83.8848 169.045 83.8848 172.441V188.172C83.8848 191.567 86.6372 194.32 90.0326 194.32H128.267C131.662 194.32 134.414 191.567 134.414 188.172V172.441C134.414 169.045 131.662 166.293 128.267 166.293Z" fill="#918989" fill-opacity="0.25"/>
<path d="M127.929 99.5872H89.6947C86.2993 99.5872 83.5469 102.34 83.5469 105.735V121.466C83.5469 124.862 86.2994 127.614 89.6947 127.614H127.929C131.324 127.614 134.077 124.862 134.077 121.466V105.735C134.077 102.34 131.324 99.5872 127.929 99.5872Z" fill="#918989" fill-opacity="0.25"/>
<path d="M444.749 38.8932H406.515C403.12 38.8932 400.367 41.6457 400.367 45.041V55.7427C400.367 59.138 403.12 61.8905 406.515 61.8905H444.749C448.144 61.8905 450.897 59.138 450.897 55.7427V45.041C450.897 41.6457 448.144 38.8932 444.749 38.8932Z" fill="#B88C26"/>
<path d="M128.267 199.383H90.0326C86.6372 199.383 83.8848 202.136 83.8848 205.531V221.262C83.8848 224.658 86.6372 227.41 90.0326 227.41H128.267C131.662 227.41 134.414 224.658 134.414 221.262V205.531C134.414 202.136 131.662 199.383 128.267 199.383Z" fill="#918989" fill-opacity="0.25"/>
<path d="M389.382 66.9708H354.281C350.885 66.9708 348.133 69.7233 348.133 73.1187V88.8499C348.133 92.2453 350.885 94.9977 354.281 94.9977H389.382C392.777 94.9977 395.529 92.2453 395.529 88.8499V73.1186C395.529 69.7233 392.777 66.9708 389.382 66.9708Z" fill="#918989" fill-opacity="0.25"/>
<path d="M337.165 166.293H302.064C298.668 166.293 295.916 169.045 295.916 172.441V188.172C295.916 191.567 298.668 194.32 302.064 194.32H337.165C340.56 194.32 343.313 191.567 343.313 188.172V172.441C343.313 169.045 340.56 166.293 337.165 166.293Z" fill="#918989" fill-opacity="0.25"/>
<path d="M389.382 166.293H354.281C350.885 166.293 348.133 169.045 348.133 172.441V188.172C348.133 191.567 350.885 194.32 354.281 194.32H389.382C392.777 194.32 395.529 191.567 395.529 188.172V172.441C395.529 169.045 392.777 166.293 389.382 166.293Z" fill="#918989" fill-opacity="0.25"/>
<path d="M389.382 100.078H354.281C350.885 100.078 348.133 102.831 348.133 106.226V121.957C348.133 125.353 350.885 128.105 354.281 128.105H389.382C392.777 128.105 395.529 125.353 395.529 121.957V106.226C395.529 102.831 392.777 100.078 389.382 100.078Z" fill="#918989" fill-opacity="0.25"/>
<path d="M389.382 133.185H354.281C350.885 133.185 348.133 135.938 348.133 139.333V155.065C348.133 158.46 350.885 161.212 354.281 161.212H389.382C392.777 161.212 395.529 158.46 395.529 155.065V139.333C395.529 135.938 392.777 133.185 389.382 133.185Z" fill="#918989" fill-opacity="0.25"/>
<path d="M389.382 199.383H354.281C350.885 199.383 348.133 202.136 348.133 205.531V221.262C348.133 224.658 350.885 227.41 354.281 227.41H389.382C392.777 227.41 395.529 224.658 395.529 221.262V205.531C395.529 202.136 392.777 199.383 389.382 199.383Z" fill="#918989" fill-opacity="0.25"/>
<path d="M336.884 67.0581H301.783C298.387 67.0581 295.635 69.8106 295.635 73.2059V88.9372C295.635 92.3325 298.387 95.085 301.783 95.085H336.884C340.279 95.085 343.031 92.3325 343.031 88.9372V73.2059C343.031 69.8106 340.279 67.0581 336.884 67.0581Z" fill="#F6F4FF"/>
<rect x="301.73" y="75.6245" width="7.11146" height="10.7081" rx="3.55573" fill="#871F34" fill-opacity="0.65"/>
<rect x="310.873" y="75.6245" width="7.11146" height="10.7081" rx="3.55573" fill="#871F34" fill-opacity="0.65"/>
<rect x="320.018" y="75.6245" width="7.11146" height="10.7081" rx="3.55573" fill="#871F34" fill-opacity="0.65"/>
<rect x="330.176" y="75.6245" width="7.11146" height="10.7081" rx="3.55573" fill="#871F34" fill-opacity="0.65"/>
<rect x="91.4336" y="142.015" width="7.11146" height="10.7081" rx="3.55573" fill="#871F34" fill-opacity="0.65"/>
<rect x="100.578" y="142.015" width="7.11146" height="10.7081" rx="3.55573" fill="#871F34" fill-opacity="0.65"/>
<rect x="109.721" y="142.015" width="7.11146" height="10.7081" rx="3.55573" fill="#871F34" fill-opacity="0.65"/>
<rect x="119.879" y="142.015" width="7.11146" height="10.7081" rx="3.55573" fill="#871F34" fill-opacity="0.65"/>
<path d="M444.749 199.383H406.515C403.12 199.383 400.367 202.136 400.367 205.531V221.262C400.367 224.658 403.12 227.41 406.515 227.41H444.749C448.144 227.41 450.897 224.658 450.897 221.262V205.531C450.897 202.136 448.144 199.383 444.749 199.383Z" fill="#918989" fill-opacity="0.25"/>
<path d="M389.382 38.8932H354.281C350.885 38.8932 348.133 41.6457 348.133 45.041V55.7427C348.133 59.138 350.885 61.8905 354.281 61.8905H389.382C392.777 61.8905 395.529 59.138 395.529 55.7427V45.041C395.529 41.6457 392.777 38.8932 389.382 38.8932Z" fill="#B88C26"/>
<path d="M444.749 166.293H406.515C403.12 166.293 400.367 169.045 400.367 172.441V188.172C400.367 191.567 403.12 194.32 406.515 194.32H444.749C448.144 194.32 450.897 191.567 450.897 188.172V172.441C450.897 169.045 448.144 166.293 444.749 166.293Z" fill="#918989" fill-opacity="0.25"/>
<path d="M389.382 232.49H354.281C350.885 232.49 348.133 235.243 348.133 238.638V255.961C348.133 259.357 350.885 262.109 354.281 262.109H389.382C392.777 262.109 395.529 259.357 395.529 255.961V238.638C395.529 235.243 392.777 232.49 389.382 232.49Z" fill="#918989" fill-opacity="0.25"/>
<path d="M444.749 133.185H406.515C403.12 133.185 400.367 135.938 400.367 139.333V155.065C400.367 158.46 403.12 161.212 406.515 161.212H444.749C448.144 161.212 450.897 158.46 450.897 155.065V139.333C450.897 135.938 448.144 133.185 444.749 133.185Z" fill="#918989" fill-opacity="0.25"/>
<path d="M284.932 232.49H249.831C246.436 232.49 243.684 235.243 243.684 238.638V255.961C243.684 259.357 246.436 262.109 249.831 262.109H284.932C288.328 262.109 291.08 259.357 291.08 255.961V238.638C291.08 235.243 288.328 232.49 284.932 232.49Z" fill="#918989" fill-opacity="0.25"/>
<path d="M337.165 232.49H302.064C298.668 232.49 295.916 235.243 295.916 238.638V255.961C295.916 259.357 298.668 262.109 302.064 262.109H337.165C340.56 262.109 343.313 259.357 343.313 255.961V238.638C343.313 235.243 340.56 232.49 337.165 232.49Z" fill="#918989" fill-opacity="0.25"/>
<path d="M444.442 99.5872H406.208C402.813 99.5872 400.061 102.34 400.061 105.735V121.466C400.061 124.862 402.813 127.614 406.208 127.614H444.442C447.838 127.614 450.59 124.862 450.59 121.466V105.735C450.59 102.34 447.838 99.5872 444.442 99.5872Z" fill="#918989" fill-opacity="0.25"/>
<path d="M444.749 232.49H406.515C403.12 232.49 400.367 235.243 400.367 238.638V255.961C400.367 259.357 403.12 262.109 406.515 262.109H444.749C448.144 262.109 450.897 259.357 450.897 255.961V238.638C450.897 235.243 448.144 232.49 444.749 232.49Z" fill="#918989" fill-opacity="0.25"/>
<path d="M128.267 232.49H90.0326C86.6372 232.49 83.8848 235.243 83.8848 238.638V255.961C83.8848 259.357 86.6372 262.109 90.0326 262.109H128.267C131.662 262.109 134.414 259.357 134.414 255.961V238.638C134.414 235.243 131.662 232.49 128.267 232.49Z" fill="#918989" fill-opacity="0.25"/>
<path d="M444.749 66.9708H406.515C403.12 66.9708 400.367 69.7233 400.367 73.1187V88.8499C400.367 92.2453 403.12 94.9977 406.515 94.9977H444.749C448.144 94.9977 450.897 92.2453 450.897 88.8499V73.1186C450.897 69.7233 448.144 66.9708 444.749 66.9708Z" fill="#918989" fill-opacity="0.25"/>
<path d="M128.267 38.8932H90.0326C86.6372 38.8932 83.8848 41.6457 83.8848 45.041V55.7427C83.8848 59.138 86.6372 61.8905 90.0326 61.8905H128.267C131.662 61.8905 134.414 59.138 134.414 55.7427V45.041C134.414 41.6457 131.662 38.8932 128.267 38.8932Z" fill="#B88C26"/>
<path d="M180.483 38.8932H145.382C141.987 38.8932 139.234 41.6457 139.234 45.041V55.7427C139.234 59.138 141.987 61.8905 145.382 61.8905H180.483C183.879 61.8905 186.631 59.138 186.631 55.7427V45.041C186.631 41.6457 183.879 38.8932 180.483 38.8932Z" fill="#B88C26"/>
<path d="M180.483 166.293H145.382C141.987 166.293 139.234 169.045 139.234 172.441V188.172C139.234 191.567 141.987 194.32 145.382 194.32H180.483C183.879 194.32 186.631 191.567 186.631 188.172V172.441C186.631 169.045 183.879 166.293 180.483 166.293Z" fill="#918989" fill-opacity="0.25"/>
<path d="M232.716 38.8932H197.615C194.219 38.8932 191.467 41.6457 191.467 45.041V55.7427C191.467 59.138 194.219 61.8905 197.615 61.8905H232.716C236.111 61.8905 238.863 59.138 238.863 55.7427V45.041C238.863 41.6457 236.111 38.8932 232.716 38.8932Z" fill="#B88C26"/>
<path d="M232.716 100.078H197.615C194.219 100.078 191.467 102.831 191.467 106.226V121.957C191.467 125.353 194.219 128.105 197.615 128.105H232.716C236.111 128.105 238.863 125.353 238.863 121.957V106.226C238.863 102.831 236.111 100.078 232.716 100.078Z" fill="#918989" fill-opacity="0.25"/>
<path d="M180.483 199.383H145.382C141.987 199.383 139.234 202.136 139.234 205.531V221.262C139.234 224.658 141.987 227.41 145.382 227.41H180.483C183.879 227.41 186.631 224.658 186.631 221.262V205.531C186.631 202.136 183.879 199.383 180.483 199.383Z" fill="#918989" fill-opacity="0.25"/>
<path d="M232.716 66.9708H197.615C194.219 66.9708 191.467 69.7233 191.467 73.1187V88.8499C191.467 92.2453 194.219 94.9977 197.615 94.9977H232.716C236.111 94.9977 238.863 92.2453 238.863 88.8499V73.1186C238.863 69.7233 236.111 66.9708 232.716 66.9708Z" fill="#918989" fill-opacity="0.25"/>
<path d="M181.03 67.4113H145.929C142.534 67.4113 139.781 70.1637 139.781 73.5591V89.2903C139.781 92.6857 142.534 95.4382 145.929 95.4382H181.03C184.425 95.4382 187.178 92.6857 187.178 89.2903V73.5591C187.178 70.1637 184.425 67.4113 181.03 67.4113Z" fill="#918989" fill-opacity="0.25"/>
<path d="M232.716 133.185H197.615C194.219 133.185 191.467 135.938 191.467 139.333V155.065C191.467 158.46 194.219 161.212 197.615 161.212H232.716C236.111 161.212 238.863 158.46 238.863 155.065V139.333C238.863 135.938 236.111 133.185 232.716 133.185Z" fill="#918989" fill-opacity="0.25"/>
<path d="M180.483 133.185H145.382C141.987 133.185 139.234 135.938 139.234 139.333V155.065C139.234 158.46 141.987 161.212 145.382 161.212H180.483C183.879 161.212 186.631 158.46 186.631 155.065V139.333C186.631 135.938 183.879 133.185 180.483 133.185Z" fill="#918989" fill-opacity="0.25"/>
<path d="M180.483 232.49H145.382C141.987 232.49 139.234 235.243 139.234 238.638V255.961C139.234 259.357 141.987 262.109 145.382 262.109H180.483C183.879 262.109 186.631 259.357 186.631 255.961V238.638C186.631 235.243 183.879 232.49 180.483 232.49Z" fill="#918989" fill-opacity="0.25"/>
<path d="M180.483 100.078H145.382C141.987 100.078 139.234 102.831 139.234 106.226V121.957C139.234 125.353 141.987 128.105 145.382 128.105H180.483C183.879 128.105 186.631 125.353 186.631 121.957V106.226C186.631 102.831 183.879 100.078 180.483 100.078Z" fill="#918989" fill-opacity="0.25"/>
<path d="M232.716 232.49H197.615C194.219 232.49 191.467 235.243 191.467 238.638V255.961C191.467 259.357 194.219 262.109 197.615 262.109H232.716C236.111 262.109 238.863 259.357 238.863 255.961V238.638C238.863 235.243 236.111 232.49 232.716 232.49Z" fill="#918989" fill-opacity="0.25"/>
<path d="M91.8359 18.4375C94.4236 18.4375 96.5213 16.2264 96.5213 13.4989C96.5213 10.7714 94.4236 8.5603 91.8359 8.5603C89.2481 8.5603 87.1504 10.7714 87.1504 13.4989C87.1504 16.2264 89.2481 18.4375 91.8359 18.4375Z" fill="#F6F4FF" fill-opacity="0.3"/>
<path d="M113.389 13.5105C113.391 12.5327 113.117 11.5763 112.603 10.7624C112.089 9.94847 111.358 9.31368 110.501 8.93845C109.645 8.56322 108.702 8.46445 107.792 8.65464C106.882 8.84482 106.046 9.31541 105.39 10.0068C104.734 10.6982 104.288 11.5792 104.107 12.5383C103.927 13.4974 104.02 14.4913 104.376 15.3942C104.732 16.2971 105.335 17.0683 106.107 17.61C106.879 18.1518 107.786 18.4398 108.714 18.4375C109.954 18.4375 111.143 17.9184 112.019 16.9944C112.896 16.0704 113.389 14.8172 113.389 13.5105Z" fill="#F6F4FF" fill-opacity="0.3"/>
<path d="M130.258 13.5105C130.26 12.5327 129.987 11.5763 129.473 10.7624C128.959 9.94847 128.227 9.31368 127.37 8.93845C126.514 8.56322 125.571 8.46445 124.661 8.65464C123.751 8.84482 122.915 9.31541 122.259 10.0068C121.603 10.6982 121.157 11.5792 120.976 12.5383C120.796 13.4974 120.889 14.4913 121.245 15.3942C121.601 16.2971 122.204 17.0683 122.976 17.61C123.748 18.1518 124.656 18.4398 125.583 18.4375C126.823 18.4375 128.012 17.9184 128.889 16.9944C129.765 16.0704 130.258 14.8172 130.258 13.5105Z" fill="#F6F4FF" fill-opacity="0.3"/>
<rect x="204.846" y="135.976" width="6.55966" height="9.87722" rx="3.27983" fill="#871F34" fill-opacity="0.65"/>
<rect x="213.279" y="135.976" width="6.55966" height="9.87722" rx="3.27983" fill="#871F34" fill-opacity="0.65"/>
<rect x="221.713" y="135.976" width="6.55966" height="9.87722" rx="3.27983" fill="#871F34" fill-opacity="0.65"/>
<rect x="231.084" y="135.976" width="6.55966" height="9.87722" rx="3.27983" fill="#871F34" fill-opacity="0.65"/>
<rect x="106.451" y="105.357" width="6.55966" height="9.87722" rx="3.27983" fill="#871F34" fill-opacity="0.65"/>
<rect x="114.885" y="105.357" width="6.55966" height="9.87722" rx="3.27983" fill="#871F34" fill-opacity="0.65"/>
<rect x="123.318" y="105.357" width="6.55966" height="9.87722" rx="3.27983" fill="#871F34" fill-opacity="0.65"/>
<rect x="132.689" y="105.357" width="6.55966" height="9.87722" rx="3.27983" fill="#871F34" fill-opacity="0.65"/>
<rect x="349.158" y="135.976" width="6.55966" height="9.87722" rx="3.27983" fill="#871F34" fill-opacity="0.65"/>
<rect x="357.592" y="135.976" width="6.55966" height="9.87722" rx="3.27983" fill="#871F34" fill-opacity="0.65"/>
<rect x="366.025" y="135.976" width="6.55966" height="9.87722" rx="3.27983" fill="#871F34" fill-opacity="0.65"/>
<rect x="375.396" y="135.976" width="6.55966" height="9.87722" rx="3.27983" fill="#871F34" fill-opacity="0.65"/>
</g>
<path d="M52.3816 388.51C49.8015 398.857 39.5293 383.219 37.1916 379.466L36.7148 378.69L37.8326 373.934L43.7219 371.745C44.6529 372.187 45.5351 372.709 46.3565 373.305C49.5753 375.597 54.3752 380.504 52.3816 388.51Z" fill="#ED9DA0"/>
<path d="M132.076 371.588C132.069 371.666 132.048 371.743 132.013 371.816L131.928 372.072C130.927 375.298 124.931 393.478 119.154 388.451C112.821 382.918 115.901 370.2 115.901 370.2H115.94L129.23 368.961L131.865 371.425L132.076 371.588Z" fill="#ED9DA0"/>
<path d="M124.367 461.023C119.489 503.593 119.919 510.607 119.919 510.607L102.72 511.227C102.72 511.227 101.524 501.485 101.524 483.639C101.524 483.639 89.0228 412.378 85.5204 401.561C85.6144 402.031 82.8701 421.814 82.8701 421.814L83.3782 452.848L83.7222 474.054L83.8962 508.2H65.3925L62.4997 492.185C62.4997 492.185 61.4829 461.764 59.8564 455.213C58.8831 451.331 54.6817 425.246 54.6817 425.246L50.7026 400.607C50.8147 395.865 50.15 391.135 48.7304 386.571C46.3852 379.557 43 370.357 43 370.357L46.862 370.67L66.4064 372.251C66.4064 372.251 113.821 369.345 115.948 371.76C116.396 372.547 116.698 373.396 116.839 374.274C118.965 382.992 121.78 410.278 121.78 410.278L124.367 461.023Z" fill="#090814"/>
<path d="M84.2854 521.381C84.1525 523.311 81.7836 523.425 81.7836 523.425C74.849 524.422 73.3728 526.879 73.3728 526.879C71.1198 528.724 68.4779 530.132 65.6081 531.017C62.7383 531.902 59.7008 532.246 56.6805 532.027C48.1537 531.315 48.9878 529.891 49.4176 527.325C49.506 526.853 49.5532 526.376 49.5586 525.898C49.5586 522.388 52.5059 521.397 57.1341 518.777C61.7624 516.156 61.6214 513.92 63.5524 511.997C65.4834 510.075 65.6708 506.3 65.6708 506.3C67.8518 502.846 73.371 506.82 73.371 506.82C73.6292 508.045 81.8456 507.874 81.8456 507.874C81.8456 507.874 82.9402 511.848 83.4953 512.083C83.8706 512.241 84.1444 515.359 84.2773 518.036C84.3167 519.399 84.3318 520.667 84.2854 521.381Z" fill="#090814"/>
<path d="M136.536 531.749C136.077 532.515 135.313 533.091 134.402 533.359H134.237C131.415 533.879 120.494 533.879 120.494 533.879C120.494 533.879 109.455 526.112 106.117 525.932C105.083 525.832 104.086 525.525 103.198 525.032C102.31 524.54 101.552 523.874 100.98 523.083C100.98 523.083 101.043 521.275 101.262 519.173C101.52 516.681 101.973 513.79 102.779 513.028C104.256 511.601 104.577 509.695 107.915 510.892C107.915 510.892 112.66 503.279 118.24 509.161L124.025 517.151C124.025 517.151 125.111 520.484 132.436 524.052C135.367 525.478 136.696 527.164 137.04 528.701C137.309 529.739 137.127 530.831 136.532 531.749L136.536 531.749Z" fill="#090814"/>
<path d="M89.8596 259.665L74.0601 274.869C74.0601 274.869 54.9298 273.587 58.268 268.46C59.9722 265.839 60.2402 260.349 60.0894 255.578C59.9484 250.977 59.4247 247.033 59.4247 247.033C59.4247 247.033 86.2633 234.87 84.207 246.214C83.7676 248.353 83.7411 250.546 84.1286 252.694C85.3195 258.419 89.8596 259.665 89.8596 259.665Z" fill="#ED9DA0"/>
<path d="M89.8608 239.085C89.8608 242.647 88.7011 246.129 86.5285 249.091C84.3559 252.053 81.2679 254.361 77.655 255.724C74.0421 257.087 70.0667 257.444 66.2313 256.749C62.396 256.053 58.8731 254.338 56.1082 251.819C53.3433 249.3 51.4605 246.091 50.6979 242.597C49.9354 239.104 50.3273 235.482 51.8242 232.192C53.3211 228.901 55.8557 226.088 59.1074 224.11C62.3591 222.131 66.182 221.075 70.0925 221.076C75.3349 221.079 80.3617 222.977 84.0684 226.354C87.7751 229.731 89.8585 234.31 89.8608 239.085Z" fill="#ED9DA0"/>
<path d="M80.173 383.751L77.093 383.459C58.2522 385.881 50.1372 379.122 47.2781 375.626C46.767 375.024 46.3268 374.375 45.9648 373.689L53.603 334.523L55.4012 276.841L58.1611 266.73L58.7945 261.873V261.816H58.8647L60.8114 262.578C60.8114 262.578 66.243 268.299 72.4705 267.171C78.698 266.042 85.7137 258.063 85.7137 258.063L85.9017 257.927L86.5664 257.479L87.661 258.277L90.3814 260.263L99.1142 311.614C99.1142 311.614 114.257 351.151 117.096 367.109C117.206 367.743 117.299 368.334 117.37 368.896C119.207 383.48 80.173 383.751 80.173 383.751Z" fill="#F7F7F7"/>
<path d="M32.0945 296.738L27.2162 299.394L22.7678 317.403C22.7678 317.403 17.1993 332.685 21.4777 343.595C25.7562 354.505 28.24 360.75 28.24 360.75C28.24 360.75 29.9524 373.148 32.5243 374.159C35.0963 375.17 36.2065 375.719 36.2065 375.719L36.7146 378.681C36.7146 378.681 43.6805 376.545 46.1504 372.735C48.6203 368.925 44.3366 359.504 44.3366 359.504C44.3366 359.504 40.6544 351.473 41.5923 347.733C42.5303 343.993 39.7158 334.203 39.7158 333.932C39.7158 333.661 39.4577 328.47 41.5059 324.461C43.5541 320.452 42.1938 318.729 42.1938 318.729L40.9119 307.263L32.0945 296.738Z" fill="#D8D8D8"/>
<path d="M118.294 278.7L127.738 283.186C127.738 283.186 135.556 301.701 136.861 309.684C136.861 309.684 142.686 330.983 138.659 339.748C134.633 348.512 134.985 365.897 134.985 365.897C134.985 365.897 132.64 369.094 131.725 368.233C130.81 367.371 132.069 371.587 132.069 371.587C132.069 371.587 115.943 373.538 115.87 370.654C115.797 367.769 119.568 353.969 119.568 353.969C119.568 353.969 120.592 321.14 119.138 315.999C117.684 310.857 118.294 278.7 118.294 278.7Z" fill="#D8D8D8"/>
<path d="M60.0129 261.545L59.7548 261.424C59.3806 261.255 58.9612 261.187 58.5458 261.227C58.1304 261.267 57.7363 261.415 57.4096 261.652L32.0096 280.423C32.0096 280.423 26.4903 287.381 27.2566 299.392L42.1727 318.726C42.1727 318.726 43.885 312.174 45.9431 313.42C45.9431 313.42 48.8515 346.947 45.9431 351.78C43.0347 356.613 41.7667 374.681 41.7667 374.681L51.6091 375.693C51.6091 375.693 52.641 363.452 54.9473 359.086C57.2536 354.721 58.5198 339.724 58.5198 339.724C58.5198 339.724 60.5993 317.919 60.2554 308.562C59.9114 299.204 56.9171 279.094 56.9171 279.094C56.9171 279.094 57.7536 267.328 60.0129 261.545Z" fill="#D8D8D8"/>
<path opacity="0.1" d="M84.9746 257.792C85.0502 257.779 85.1278 257.78 85.203 257.795C85.2782 257.81 85.3494 257.838 85.4126 257.878L84.9746 257.792Z" fill="black"/>
<path d="M85.998 256.86L114.009 262.355C114.009 262.355 121.709 263.914 127.299 281.534C132.889 299.154 119.685 320.744 119.685 320.744L116.769 318.493L118.231 369.95C118.231 369.95 105.3 374.394 101.196 370.499C97.091 366.604 97.5133 348.352 97.5133 348.352C97.5133 348.352 93.6043 314.669 91.095 309.136C88.5857 303.603 89.8595 263.682 89.8595 263.682C89.8595 263.682 87.5619 256.546 85.998 256.86Z" fill="#D8D8D8"/>
<path d="M63.982 247.599L66.8022 245.864C66.8022 245.864 64.329 233.081 70.3238 232.694C76.3186 232.307 90.8461 229.092 88.587 223.438C86.3279 217.785 71.6565 218.843 63.6905 220.49C55.7246 222.137 43.8759 230.26 48.8871 240.601C51.4177 245.824 55.0742 251.568 58.0818 254.713C58.7815 255.307 59.664 255.691 60.6108 255.816L60.9142 253.176L63.982 247.599Z" fill="#090814"/>
<path d="M297.748 518.655C296.858 516.464 296.014 513.944 296.904 511.752C297.485 510.462 298.483 509.447 299.709 508.899C300.923 508.364 302.202 508.022 303.506 507.885C307.6 507.304 311.743 507.243 315.85 507.703C316.15 510.269 315.516 512.871 314.972 515.35C314.478 517.633 314.196 517.97 312.019 518.088C310.61 518.171 298.081 519.463 297.748 518.655Z" fill="#ED9DA0"/>
<path d="M335.313 503.872C368.629 503.872 395.637 495.697 395.637 485.611C395.637 475.526 368.629 467.35 335.313 467.35C301.997 467.35 274.988 475.526 274.988 485.611C274.988 495.697 301.997 503.872 335.313 503.872Z" fill="#090814"/>
<path d="M346.13 389.211C344.063 393.535 340.628 396.912 336.453 398.726C333.995 399.695 331.408 400.228 328.792 400.304C325.928 400.443 323.002 400.244 320.313 399.185C316.702 397.77 313.703 394.876 311.454 391.502C309.205 388.128 307.657 384.275 306.312 380.39C305.603 378.368 304.928 376.213 305.261 374.078C307.434 373.544 309.813 372.758 310.935 370.672C311.893 368.883 311.627 366.737 311.075 364.692C310.919 364.112 310.737 363.537 310.556 362.984C310.134 361.661 308.679 359.145 309.691 358.013C310.335 357.296 313.041 356.931 313.973 356.465C316.847 355.031 319.495 352.959 322.651 352.278C325.38 351.689 328.198 352.242 330.923 352.853C331.285 352.91 331.632 353.045 331.944 353.251C332.3 353.575 332.563 354.003 332.703 354.483C333.479 356.529 333.935 358.789 334.559 360.92C335.209 363.153 336.044 365.248 337.609 366.832C338.829 368.07 340.381 368.846 341.898 369.599L345.636 371.452C346.3 371.722 346.903 372.144 347.403 372.69C347.892 373.417 348.184 374.277 348.247 375.173C348.916 379.977 348.176 384.887 346.129 389.211L346.13 389.211Z" fill="#ED9DA0"/>
<path d="M321.847 369.443C333.183 369.443 342.373 359.498 342.373 347.229C342.373 334.961 333.183 325.016 321.847 325.016C310.51 325.016 301.32 334.961 301.32 347.229C301.32 359.498 310.51 369.443 321.847 369.443Z" fill="#ED9DA0"/>
<path d="M379.671 413.612L378.076 403.158C377.27 397.913 376.439 392.566 374.186 387.841C372.706 384.746 351.964 372.539 349.981 371.196C347.998 369.854 345.53 368.914 343.337 369.772C342.982 373.856 342.608 378.033 341.004 381.756C339.96 384.178 338.43 386.317 336.525 388.017C334.619 389.717 332.387 390.935 329.99 391.581C327.594 392.227 325.095 392.285 322.675 391.751C320.255 391.218 317.976 390.105 316.005 388.496C312.246 385.433 309.838 380.707 308.714 375.763C308.44 374.557 308.128 373.175 307.103 372.623C305.993 372.019 304.658 372.75 303.728 373.636C302.019 375.275 300.661 377.622 298.442 378.174C297.641 378.375 282.433 385.921 281.572 387.232C280.712 388.542 280.307 390.162 279.885 391.734C284.496 402.845 288.714 413.971 293.325 425.083C293.541 425.502 293.655 425.973 293.658 426.452C293.566 426.95 293.369 427.419 293.084 427.822C290.823 431.753 290.895 436.697 291.144 441.317C291.392 445.937 291.696 450.817 289.79 454.958C289.271 456.095 286.53 469.083 287.204 471.85H382.542C380.724 466.44 381.416 455.584 381.796 449.841C382.061 445.823 381.374 441.811 381.079 437.793C380.46 429.586 380.924 421.802 379.671 413.612Z" fill="#E3E1E1"/>
<path d="M384.552 468.651C385.957 468.071 387.505 468.28 389.012 468.5C393.859 469.217 398.778 469.952 403.271 472.048C405.38 473.022 407.388 474.33 408.814 476.252C410.079 477.982 410.818 480.101 411.516 482.187L413.136 486.976C413.751 488.802 414.376 490.665 414.551 492.605C415.057 498.353 411.425 503.771 406.856 506.757C402.288 509.743 396.909 510.807 391.67 511.92C386.431 513.034 381.17 514.267 375.952 515.573C373.518 516.256 371.048 516.782 368.557 517.148C362.971 517.832 357.133 516.823 351.826 518.823C349.717 519.622 347.646 520.809 345.456 521.361C344.004 521.706 342.535 521.962 341.056 522.128L331.012 523.37C328.97 523.665 326.913 523.835 324.853 523.88C320.466 523.88 316.15 522.757 311.89 521.634C311.437 521.548 311.005 521.36 310.624 521.082C309.949 520.507 309.801 519.489 309.704 518.566C309.276 514.485 308.899 510.399 308.574 506.309C308.473 504.98 308.397 503.542 309.068 502.423C309.911 501.054 311.555 500.625 313.058 500.36C319.426 499.233 325.877 498.748 332.328 498.913C334.779 496.26 338.821 496.247 342.031 494.804C343.212 494.217 344.355 493.544 345.452 492.79C351.192 489.166 357.606 486.971 364.228 486.367C365.526 486.324 366.815 486.125 368.072 485.773C370.557 484.938 372.822 482.664 375.374 483.221C375.69 482.276 375.909 481.011 376.639 480.362C377.002 480.029 377.449 479.805 377.783 479.449C378.487 478.678 378.55 477.463 378.445 476.386C378.339 475.309 378.102 474.205 378.359 473.154C378.466 472.756 378.624 472.377 378.827 472.026C380.097 469.628 382.01 468.423 384.552 468.651Z" fill="#090814"/>
<path d="M301.629 521.476C299.017 524.749 296.719 525.918 292.63 525.813C290.116 525.749 287.605 525.607 285.096 525.388C283.383 525.187 281.659 525.1 279.935 525.127C274.729 525.346 269.705 527.925 264.512 527.473C263.744 527.408 262.985 527.255 262.247 527.017C261.075 526.664 260.017 525.967 259.189 525.003C258.193 523.785 257.716 522.168 257.442 520.57C256.054 512.38 259.859 503.46 266.521 499.291C267.39 498.684 268.378 498.304 269.406 498.182C270.415 498.178 271.412 498.416 272.325 498.878L272.389 498.906C275.095 500.111 277.553 501.886 279.619 504.129C279.933 504.517 280.307 504.843 280.725 505.092C281.141 505.262 281.582 505.352 282.028 505.357L287.571 505.735C288.51 505.766 289.444 505.907 290.355 506.153C291.36 506.533 292.339 506.991 293.283 507.523C296.265 508.965 299.573 509.349 302.796 509.906C303.106 509.924 303.403 510.053 303.639 510.271C303.768 510.444 303.858 510.647 303.901 510.865C304.351 512.7 304.379 514.627 303.984 516.477C303.588 518.327 302.781 520.044 301.631 521.479L301.629 521.476Z" fill="#323144"/>
<path d="M379.726 510.259C382.826 510.167 386.306 509.999 388.584 512.259C390.757 514.394 391.044 517.921 391.187 521.093L391.352 524.777C391.403 525.9 391.445 527.06 391.027 528.101C390.285 529.927 388.247 530.808 386.387 530.703C384.526 530.598 382.818 529.717 381.118 528.923C376.503 526.771 371.697 525.132 366.775 524.033C366.936 521.485 367.203 518.95 367.577 516.427C367.834 514.679 367.877 511.753 368.956 510.301C370.1 508.769 371.589 509.598 373.141 509.883C375.319 510.243 377.525 510.369 379.726 510.262V510.259Z" fill="#ED9DA0"/>
<path d="M297.794 473.244C297.794 473.701 297.131 473.244 297.072 472.756C296.608 469.062 293.899 466.018 290.745 464.538C287.591 463.059 283.995 462.982 280.578 463.332C275.411 463.861 269.631 466.002 267.72 471.23C267.273 472.453 267.07 473.777 266.522 474.951C265.915 476.238 264.923 477.265 264.265 478.516C263.13 480.68 263.084 483.332 263.493 485.779C264.594 492.308 268.72 497.893 273.719 501.758C278.718 505.623 284.56 507.935 290.386 510.017C305.79 515.515 321.595 519.6 337.633 522.229C340.232 522.654 342.855 523.047 345.345 523.95C347.572 524.758 349.656 525.968 351.833 526.918C356.893 529.118 362.34 529.904 367.736 530.677C368.656 530.805 369.709 530.897 370.39 530.221C371.267 529.339 370.976 527.807 370.727 526.541C369.811 521.737 370.576 516.736 372.874 512.508C373.775 510.864 374.95 509.179 374.781 507.276C374.579 505.058 372.537 503.487 370.504 503.131C368.47 502.775 366.403 503.3 364.361 503.588C363.654 503.76 362.915 503.682 362.252 503.364C361.949 503.142 361.674 502.878 361.434 502.579C360.027 501.11 358.227 500.161 356.292 499.869C354.356 499.576 352.384 499.954 350.66 500.949C349.904 501.405 348.761 500.387 347.977 500.004L339.113 495.653C328.922 490.663 318.679 485.65 307.897 482.491C307.036 482.308 306.219 481.94 305.492 481.409C304.956 480.952 304.572 480.332 304.077 479.825C303.001 478.725 301.503 478.286 300.212 477.504C298.922 476.722 297.49 474.81 297.794 473.244Z" fill="#090814"/>
<path d="M428.395 533.587C426.98 536.431 424.227 538.202 421.276 538.933C420.534 539.114 419.781 539.23 419.023 539.28C415.289 539.531 411.603 538.413 408.004 537.308L403.119 535.811C402.279 535.525 401.419 535.317 400.546 535.19C399.358 535.104 398.166 535.148 396.986 535.322C391.213 535.903 385.233 532.689 379.531 531.551C379.054 531.495 378.826 525.721 379.531 524.201C380.236 522.681 380.704 508.912 382.168 509.122C383.632 509.332 385.066 509.779 386.538 509.902C390.866 510.277 395.291 507.86 399.447 509.222C400.362 509.523 401.227 510.003 402.156 510.267C403.965 510.705 405.855 510.528 407.568 509.76C408.175 509.514 408.769 509.217 409.361 508.925C410.5 508.283 411.713 507.809 412.967 507.515C417.022 506.761 420.78 509.797 423.839 512.759C424.888 513.702 425.818 514.792 426.602 516.001C427.388 517.468 427.957 519.059 428.289 520.717C429.401 524.95 430.325 529.707 428.395 533.587Z" fill="#323144"/>
<path d="M296.377 433.791C295.866 442.857 289.72 450.349 287.378 459.069C286.796 461.25 286.446 463.515 285.611 465.592C283.924 469.769 280.452 472.801 276.752 474.938C275.402 475.782 273.926 476.363 272.39 476.655C270.702 476.868 268.994 476.52 267.493 475.656C265.993 474.792 264.771 473.454 263.991 471.82C263.025 469.697 262.89 467.255 262.303 464.972C261.649 462.338 260.426 459.91 259.629 457.321C258.161 452.56 258.191 447.346 259.207 442.452C260.17 438.196 261.695 434.113 263.733 430.327C264.029 429.765 264.328 429.208 264.634 428.656C265.504 427.059 266.481 425.533 267.557 424.091C270.088 420.79 273.341 418.251 276.559 415.75C276.805 415.531 277.093 415.374 277.403 415.293H277.453C277.816 415.279 278.176 415.371 278.496 415.558C282.959 417.646 287.244 420.158 291.299 423.063C292.75 424.108 295.041 425.278 295.802 427.058C296.563 428.838 296.486 431.855 296.377 433.791Z" fill="#ED9DA0"/>
<path d="M279.63 392.069C279.219 392.534 278.9 393.086 278.693 393.689C275.283 402.006 273.269 410.913 272.745 419.994C272.754 420.437 272.66 420.875 272.471 421.268C272.285 421.529 272.077 421.773 271.851 421.994C271.646 422.258 271.493 422.564 271.401 422.894C271.31 423.224 271.281 423.571 271.319 423.913C271.356 424.256 271.458 424.586 271.617 424.884C271.777 425.182 271.992 425.442 272.248 425.647C272.944 424.227 274.61 423.766 276.091 423.642C283.183 423.035 290.109 426.605 297.221 426.334C296.72 424.458 295.998 422.655 295.589 420.756C293.779 412.324 298.291 403.143 295.525 395.021C294.972 393.396 294.049 391.798 292.593 391.086C291.991 390.822 291.36 390.641 290.716 390.547C288.919 390.195 285.342 388.693 283.604 389.294C282.961 389.517 282.71 390.17 282.178 390.562C281.389 391.128 280.317 391.324 279.63 392.069Z" fill="#E3E1E1"/>
<path opacity="0.046" d="M281.748 467.557C280.738 469.525 279.269 471.172 277.488 472.334C275.707 473.496 273.675 474.133 271.596 474.181C270.481 474.213 269.373 473.985 268.347 473.51C265.752 472.222 264.286 469.036 263.742 465.904C263.199 462.772 263.369 459.54 262.983 456.377C262.674 453.856 262.016 451.41 261.675 448.894C260.839 442.671 262.488 436.527 263.661 430.331C263.945 429.77 264.234 429.213 264.53 428.661C265.365 427.068 266.306 425.542 267.344 424.095C269.781 420.795 272.911 418.257 276.01 415.755H272.761C272.839 415.69 272.931 415.65 273.028 415.638C273.125 415.626 273.224 415.642 273.313 415.686C273.403 415.732 273.481 415.802 273.539 415.89C273.596 415.978 273.632 416.081 273.642 416.188C273.963 419.384 277.971 422.58 278.844 425.684C279.384 427.592 280.034 429.464 280.468 431.409C280.811 433.066 281.071 434.743 281.248 436.431C281.825 441.157 282.399 445.875 282.97 450.583C283.689 456.33 284.307 462.544 281.748 467.557Z" fill="black"/>
<path d="M276.95 407.612L281.021 393.793C281.628 391.725 282.244 389.625 282.316 387.452C282.388 385.278 281.861 383.001 280.456 381.448C279.317 380.195 277.739 379.545 276.389 378.563C273.014 376.103 271.328 371.793 269.568 367.826C267.807 363.858 266.434 360.334 262.595 358.864C261.709 358.526 260.486 358.499 260.089 359.416C259.952 359.798 259.929 360.216 260.025 360.612C260.269 362.406 260.977 364.089 262.067 365.466C264.105 368.319 265.809 371.811 265.32 375.381C264.738 379.609 261.228 382.887 260.806 387.137C260.62 389.009 261.063 390.885 261.059 392.77C261.059 393.939 260.882 395.131 261.122 396.272C261.372 397.154 261.669 398.02 262.012 398.865C262.388 400.23 262.584 401.645 262.595 403.069L263.485 421.038C263.965 430.758 259.093 440.212 260.435 449.799C260.789 452.315 261.472 454.762 261.793 457.282C262.215 460.446 262.016 463.674 262.582 466.81C263.147 469.946 264.691 473.128 267.365 474.416C268.435 474.891 269.584 475.119 270.74 475.087C272.875 475.055 274.967 474.429 276.814 473.269C278.661 472.109 280.201 470.454 281.286 468.463C283.945 463.441 283.302 457.237 282.577 451.512L280.789 437.363C280.605 435.674 280.335 433.998 279.979 432.341C279.532 430.397 278.857 428.525 278.291 426.616C276.482 420.376 275.127 413.814 276.95 407.612Z" fill="#ED9DA0"/>
<path d="M385.26 408.686H298.024C296.136 408.686 294.605 410.342 294.605 412.385V469.814C294.605 471.857 296.136 473.513 298.024 473.513H385.26C387.147 473.513 388.678 471.857 388.678 469.814V412.385C388.678 410.342 387.147 408.686 385.26 408.686Z" fill="#3F3D56"/>
<path opacity="0.2" d="M385.26 408.686H298.024C296.136 408.686 294.605 410.342 294.605 412.385V469.814C294.605 471.857 296.136 473.513 298.024 473.513H385.26C387.147 473.513 388.678 471.857 388.678 469.814V412.385C388.678 410.342 387.147 408.686 385.26 408.686Z" fill="black"/>
<path d="M341.43 443.84C342.828 443.84 343.961 442.613 343.961 441.1C343.961 439.587 342.828 438.361 341.43 438.361C340.032 438.361 338.898 439.587 338.898 441.1C338.898 442.613 340.032 443.84 341.43 443.84Z" fill="white"/>
<path d="M332.62 351.846L329.43 350.307C329.43 350.307 329.43 334.483 323.296 335.176C317.161 335.868 301.85 334.81 303.028 327.589C304.206 320.367 319.241 318.804 327.614 319.244C335.987 319.684 349.55 327.149 346.507 340.532C344.97 347.29 339.971 359.247 339.971 359.247L333.903 364.9L336.808 357.95L332.62 351.846Z" fill="#090814"/>
<defs>
<filter id="filter0_d_1082_871" x="66.7129" y="0" width="419.616" height="298.444" filterUnits="userSpaceOnUse" color-interpolation-filters="sRGB">
<feFlood flood-opacity="0" result="BackgroundImageFix"/>
<feColorMatrix in="SourceAlpha" type="matrix" values="0 0 0 0 0 0 0 0 0 0 0 0 0 0 0 0 0 0 127 0" result="hardAlpha"/>
<feOffset dx="11" dy="11"/>
<feGaussianBlur stdDeviation="1.1"/>
<feComposite in2="hardAlpha" operator="out"/>
<feColorMatrix type="matrix" values="0 0 0 0 0 0 0 0 0 0 0 0 0 0 0 0 0 0 0.17 0"/>
<feBlend mode="normal" in2="BackgroundImageFix" result="effect1_dropShadow_1082_871"/>
<feBlend mode="normal" in="SourceGraphic" in2="effect1_dropShadow_1082_871" result="shape"/>
</filter>
</defs>
</svg>
