<svg width="724" height="558" viewBox="0 0 724 558" fill="none" xmlns="http://www.w3.org/2000/svg">
<path d="M117.557 555.736C117.557 556.526 117.99 557.16 118.528 557.16H602.817C603.36 557.16 603.788 556.527 603.788 555.736C603.788 554.945 603.36 554.312 602.817 554.312H118.528C117.99 554.313 117.557 554.947 117.557 555.736Z" fill="#E6E6E6"/>
<path d="M293.477 551.043H276.186V554.094H293.477V551.043Z" fill="#B6B3C5"/>
<path d="M446.549 551.553H429.258V554.604H446.549V551.553Z" fill="#B6B3C5"/>
<path d="M386.162 415.258C385.2 421.083 382.201 426.377 377.699 430.196C373.197 434.016 367.485 436.113 361.581 436.113C355.677 436.113 349.965 434.016 345.463 430.196C340.961 426.377 337.962 421.083 337 415.258H274.107V551.55H449.052V415.258H386.162Z" fill="#D6D6E3"/>
<path d="M449.558 540.752H274.617V545.496H449.558V540.752Z" fill="#090814"/>
<path d="M713.405 421.081H9.75284C7.16689 421.079 4.68761 420.05 2.85914 418.222C1.03067 416.393 0.0023931 413.914 0 411.328L0 9.75359C0.0023931 7.16764 1.03067 4.68828 2.85914 2.85967C4.68761 1.03106 7.16689 0.00259282 9.75284 0H713.405C715.991 0.00259282 718.47 1.03106 720.299 2.85967C722.127 4.68828 723.155 7.16764 723.158 9.75359V411.328C723.155 413.914 722.127 416.393 720.299 418.222C718.47 420.05 715.991 421.079 713.405 421.081Z" fill="#090814"/>
<path d="M704.208 12.8882H15.6309V401.421H704.208V12.8882Z" fill="#FEFEFE"/>
<path d="M633 367.758C633 372.035 524.642 375.505 391 375.505C257.358 375.505 149 372.035 149 367.758C149 363.481 257.344 360 391 360C524.656 360 633 363.47 633 367.758Z" fill="black" fill-opacity="0.08"/>
<g filter="url(#filter0_d_1612_1943)">
<path d="M501.145 26.0024H248.855C241.756 26.0024 236 32.0725 236 39.5604V207.244C236 214.732 241.756 220.802 248.855 220.802H501.145C508.244 220.802 514 214.732 514 207.244V39.5604C514 32.0725 508.244 26.0024 501.145 26.0024Z" fill="white" stroke="#212121" stroke-width="1.53696" stroke-miterlimit="10" stroke-linecap="round"/>
<path d="M238 34.7208C238 29.9044 241.904 26 246.721 26H502C506.971 26 511 30.0294 511 35V44H238V34.7208Z" fill="#6B2340"/>
<path d="M347.528 139.656H327.28C323.884 139.656 321.132 142.408 321.132 145.804V152.752C321.132 156.147 323.884 158.9 327.28 158.9H347.528C350.923 158.9 353.675 156.147 353.675 152.752V145.804C353.675 142.408 350.923 139.656 347.528 139.656Z" fill="#918989" fill-opacity="0.25"/>
<path d="M347.528 162.375H327.28C323.884 162.375 321.132 165.128 321.132 168.523V175.472C321.132 178.867 323.884 181.619 327.28 181.619H347.528C350.923 181.619 353.675 178.867 353.675 175.472V168.523C353.675 165.128 350.923 162.375 347.528 162.375Z" fill="#918989" fill-opacity="0.25"/>
<path d="M383.381 139.656H363.133C359.738 139.656 356.985 142.408 356.985 145.804V152.752C356.985 156.147 359.738 158.9 363.133 158.9H383.381C386.777 158.9 389.529 156.147 389.529 152.752V145.804C389.529 142.408 386.777 139.656 383.381 139.656Z" fill="#918989" fill-opacity="0.25"/>
<path d="M419.245 116.923H398.997C395.602 116.923 392.85 119.676 392.85 123.071V130.019C392.85 133.415 395.602 136.167 398.997 136.167H419.245C422.641 136.167 425.393 133.415 425.393 130.019V123.071C425.393 119.676 422.641 116.923 419.245 116.923Z" fill="#918989" fill-opacity="0.25"/>
<path d="M419.245 94.1909H398.997C395.602 94.1909 392.85 96.9434 392.85 100.339V107.287C392.85 110.682 395.602 113.435 398.997 113.435H419.245C422.641 113.435 425.393 110.682 425.393 107.287V100.339C425.393 96.9434 422.641 94.1909 419.245 94.1909Z" fill="#918989" fill-opacity="0.25"/>
<path d="M419.245 52.1797H398.997C395.602 52.1797 392.85 54.9322 392.85 58.3275V61.8224C392.85 65.2177 395.602 67.9702 398.997 67.9702H419.245C422.641 67.9702 425.393 65.2177 425.393 61.8224V58.3275C425.393 54.9322 422.641 52.1797 419.245 52.1797Z" fill="#B88C26"/>
<path d="M383.381 52.1797H363.133C359.738 52.1797 356.985 54.9322 356.985 58.3275V61.8224C356.985 65.2177 359.738 67.9702 363.133 67.9702H383.381C386.777 67.9702 389.529 65.2177 389.529 61.8224V58.3275C389.529 54.9322 386.777 52.1797 383.381 52.1797Z" fill="#B88C26"/>
<path d="M383.381 162.375H363.133C359.738 162.375 356.985 165.128 356.985 168.523V175.472C356.985 178.867 359.738 181.619 363.133 181.619H383.381C386.777 181.619 389.529 178.867 389.529 175.472V168.523C389.529 165.128 386.777 162.375 383.381 162.375Z" fill="#918989" fill-opacity="0.25"/>
<path d="M383.746 71.7617H363.498C360.103 71.7617 357.351 74.5142 357.351 77.9095V84.8578C357.351 88.2532 360.103 91.0056 363.498 91.0056H383.746C387.142 91.0056 389.894 88.2532 389.894 84.8578V77.9095C389.894 74.5142 387.142 71.7617 383.746 71.7617Z" fill="#918989" fill-opacity="0.25"/>
<path d="M383.381 94.1909H363.133C359.738 94.1909 356.985 96.9434 356.985 100.339V107.287C356.985 110.682 359.738 113.435 363.133 113.435H383.381C386.777 113.435 389.529 110.682 389.529 107.287V100.339C389.529 96.9434 386.777 94.1909 383.381 94.1909Z" fill="#918989" fill-opacity="0.25"/>
<path d="M383.476 117.104H363.228C359.833 117.104 357.08 119.856 357.08 123.251V130.2C357.08 133.595 359.833 136.347 363.228 136.347H383.476C386.871 136.347 389.624 133.595 389.624 130.2V123.251C389.624 119.856 386.871 117.104 383.476 117.104Z" fill="#918989" fill-opacity="0.25"/>
<rect x="361.266" y="122.986" width="4.8829" height="7.35243" rx="2.44145" fill="#6B2340"/>
<rect x="367.544" y="122.986" width="4.8829" height="7.35243" rx="2.44145" fill="#6B2340"/>
<rect x="373.822" y="122.986" width="4.8829" height="7.35243" rx="2.44145" fill="#6B2340"/>
<rect x="380.798" y="122.986" width="4.8829" height="7.35243" rx="2.44145" fill="#6B2340"/>
<path d="M419.245 162.375H398.997C395.602 162.375 392.85 165.128 392.85 168.523V175.472C392.85 178.867 395.602 181.619 398.997 181.619H419.245C422.641 181.619 425.393 178.867 425.393 175.472V168.523C425.393 165.128 422.641 162.375 419.245 162.375Z" fill="#918989" fill-opacity="0.25"/>
<path d="M275.811 71.459H253.411C250.016 71.459 247.264 74.2115 247.264 77.6068V84.5551C247.264 87.9504 250.016 90.7029 253.411 90.7029H275.811C279.206 90.7029 281.959 87.9504 281.959 84.5551V77.6068C281.959 74.2115 279.206 71.459 275.811 71.459Z" fill="#918989" fill-opacity="0.25"/>
<path d="M276.111 117.104H253.712C250.317 117.104 247.564 119.856 247.564 123.251V130.2C247.564 133.595 250.317 136.347 253.712 136.347H276.111C279.507 136.347 282.259 133.595 282.259 130.2V123.251C282.259 119.856 279.507 117.104 276.111 117.104Z" fill="#918989" fill-opacity="0.25"/>
<path d="M275.811 139.656H253.411C250.016 139.656 247.264 142.408 247.264 145.804V152.752C247.264 156.147 250.016 158.9 253.411 158.9H275.811C279.206 158.9 281.959 156.147 281.959 152.752V145.804C281.959 142.408 279.206 139.656 275.811 139.656Z" fill="#918989" fill-opacity="0.25"/>
<path d="M275.58 93.8535H253.181C249.786 93.8535 247.033 96.606 247.033 100.001V106.95C247.033 110.345 249.786 113.097 253.181 113.097H275.58C278.976 113.097 281.728 110.345 281.728 106.95V100.001C281.728 96.606 278.976 93.8535 275.58 93.8535Z" fill="#918989" fill-opacity="0.25"/>
<path d="M493.115 52.1797H470.716C467.321 52.1797 464.568 54.9322 464.568 58.3275V61.8224C464.568 65.2177 467.321 67.9702 470.716 67.9702H493.115C496.511 67.9702 499.263 65.2177 499.263 61.8224V58.3275C499.263 54.9322 496.511 52.1797 493.115 52.1797Z" fill="#B88C26"/>
<path d="M275.811 162.375H253.411C250.016 162.375 247.264 165.128 247.264 168.523V175.472C247.264 178.867 250.016 181.619 253.411 181.619H275.811C279.206 181.619 281.959 178.867 281.959 175.472V168.523C281.959 165.128 279.206 162.375 275.811 162.375Z" fill="#918989" fill-opacity="0.25"/>
<path d="M455.099 71.459H434.851C431.456 71.459 428.703 74.2115 428.703 77.6068V84.5551C428.703 87.9504 431.456 90.7029 434.851 90.7029H455.099C458.494 90.7029 461.247 87.9504 461.247 84.5551V77.6068C461.247 74.2115 458.494 71.459 455.099 71.459Z" fill="#918989" fill-opacity="0.25"/>
<path d="M419.245 139.656H398.997C395.602 139.656 392.85 142.408 392.85 145.804V152.752C392.85 156.147 395.602 158.9 398.997 158.9H419.245C422.641 158.9 425.393 156.147 425.393 152.752V145.804C425.393 142.408 422.641 139.656 419.245 139.656Z" fill="#918989" fill-opacity="0.25"/>
<path d="M455.099 139.656H434.851C431.456 139.656 428.703 142.408 428.703 145.804V152.752C428.703 156.147 431.456 158.9 434.851 158.9H455.099C458.494 158.9 461.247 156.147 461.247 152.752V145.804C461.247 142.408 458.494 139.656 455.099 139.656Z" fill="#918989" fill-opacity="0.25"/>
<path d="M455.099 94.1909H434.851C431.456 94.1909 428.703 96.9434 428.703 100.339V107.287C428.703 110.682 431.456 113.435 434.851 113.435H455.099C458.494 113.435 461.247 110.682 461.247 107.287V100.339C461.247 96.9434 458.494 94.1909 455.099 94.1909Z" fill="#918989" fill-opacity="0.25"/>
<path d="M455.099 116.923H434.851C431.456 116.923 428.703 119.676 428.703 123.071V130.019C428.703 133.415 431.456 136.167 434.851 136.167H455.099C458.494 136.167 461.247 133.415 461.247 130.019V123.071C461.247 119.676 458.494 116.923 455.099 116.923Z" fill="#918989" fill-opacity="0.25"/>
<path d="M455.099 162.375H434.851C431.456 162.375 428.703 165.128 428.703 168.523V175.472C428.703 178.867 431.456 181.619 434.851 181.619H455.099C458.494 181.619 461.247 178.867 461.247 175.472V168.523C461.247 165.128 458.494 162.375 455.099 162.375Z" fill="#918989" fill-opacity="0.25"/>
<path d="M419.052 71.5186H398.804C395.409 71.5186 392.656 74.271 392.656 77.6664V84.6147C392.656 88.01 395.409 90.7625 398.804 90.7625H419.052C422.447 90.7625 425.2 88.01 425.2 84.6147V77.6664C425.2 74.271 422.447 71.5186 419.052 71.5186Z" fill="#F6F4FF"/>
<rect x="396.842" y="77.4004" width="4.8829" height="7.35243" rx="2.44145" fill="#6B2340"/>
<rect x="403.12" y="77.4004" width="4.8829" height="7.35243" rx="2.44145" fill="#6B2340"/>
<rect x="409.398" y="77.4004" width="4.8829" height="7.35243" rx="2.44145" fill="#6B2340"/>
<rect x="416.374" y="77.4004" width="4.8829" height="7.35243" rx="2.44145" fill="#6B2340"/>
<rect x="252.446" y="122.986" width="4.8829" height="7.35243" rx="2.44145" fill="#6B2340"/>
<rect x="258.726" y="122.986" width="4.8829" height="7.35243" rx="2.44145" fill="#6B2340"/>
<rect x="265.003" y="122.986" width="4.8829" height="7.35243" rx="2.44145" fill="#6B2340"/>
<rect x="271.979" y="122.986" width="4.8829" height="7.35243" rx="2.44145" fill="#6B2340"/>
<path d="M493.115 162.375H470.716C467.321 162.375 464.568 165.128 464.568 168.523V175.472C464.568 178.867 467.321 181.619 470.716 181.619H493.115C496.511 181.619 499.263 178.867 499.263 175.472V168.523C499.263 165.128 496.511 162.375 493.115 162.375Z" fill="#918989" fill-opacity="0.25"/>
<path d="M455.099 52.1797H434.851C431.456 52.1797 428.703 54.9322 428.703 58.3275V61.8224C428.703 65.2177 431.456 67.9702 434.851 67.9702H455.099C458.494 67.9702 461.247 65.2177 461.247 61.8224V58.3275C461.247 54.9322 458.494 52.1797 455.099 52.1797Z" fill="#B88C26"/>
<path d="M493.115 139.656H470.716C467.321 139.656 464.568 142.408 464.568 145.804V152.752C464.568 156.147 467.321 158.9 470.716 158.9H493.115C496.511 158.9 499.263 156.147 499.263 152.752V145.804C499.263 142.408 496.511 139.656 493.115 139.656Z" fill="#918989" fill-opacity="0.25"/>
<path d="M455.099 185.108H434.851C431.456 185.108 428.703 187.861 428.703 191.256V199.298C428.703 202.693 431.456 205.445 434.851 205.445H455.099C458.494 205.445 461.247 202.693 461.247 199.298V191.256C461.247 187.861 458.494 185.108 455.099 185.108Z" fill="#918989" fill-opacity="0.25"/>
<path d="M493.115 116.923H470.716C467.321 116.923 464.568 119.676 464.568 123.071V130.019C464.568 133.415 467.321 136.167 470.716 136.167H493.115C496.511 136.167 499.263 133.415 499.263 130.019V123.071C499.263 119.676 496.511 116.923 493.115 116.923Z" fill="#918989" fill-opacity="0.25"/>
<path d="M383.381 185.108H363.133C359.738 185.108 356.985 187.861 356.985 191.256V199.298C356.985 202.693 359.738 205.445 363.133 205.445H383.381C386.777 205.445 389.529 202.693 389.529 199.298V191.256C389.529 187.861 386.777 185.108 383.381 185.108Z" fill="#918989" fill-opacity="0.25"/>
<path d="M419.245 185.108H398.997C395.602 185.108 392.85 187.861 392.85 191.256V199.298C392.85 202.693 395.602 205.445 398.997 205.445H419.245C422.641 205.445 425.393 202.693 425.393 199.298V191.256C425.393 187.861 422.641 185.108 419.245 185.108Z" fill="#918989" fill-opacity="0.25"/>
<path d="M492.904 93.8535H470.505C467.11 93.8535 464.357 96.606 464.357 100.001V106.95C464.357 110.345 467.11 113.097 470.505 113.097H492.904C496.3 113.097 499.052 110.345 499.052 106.95V100.001C499.052 96.606 496.3 93.8535 492.904 93.8535Z" fill="#918989" fill-opacity="0.25"/>
<path d="M493.115 185.108H470.716C467.321 185.108 464.568 187.861 464.568 191.256V199.298C464.568 202.693 467.321 205.445 470.716 205.445H493.115C496.511 205.445 499.263 202.693 499.263 199.298V191.256C499.263 187.861 496.511 185.108 493.115 185.108Z" fill="#918989" fill-opacity="0.25"/>
<path d="M275.811 185.108H253.411C250.016 185.108 247.264 187.861 247.264 191.256V199.298C247.264 202.693 250.016 205.445 253.411 205.445H275.811C279.206 205.445 281.959 202.693 281.959 199.298V191.256C281.959 187.861 279.206 185.108 275.811 185.108Z" fill="#918989" fill-opacity="0.25"/>
<path d="M493.115 71.459H470.716C467.321 71.459 464.568 74.2115 464.568 77.6068V84.5551C464.568 87.9504 467.321 90.7029 470.716 90.7029H493.115C496.511 90.7029 499.263 87.9504 499.263 84.5551V77.6068C499.263 74.2115 496.511 71.459 493.115 71.459Z" fill="#918989" fill-opacity="0.25"/>
<path d="M275.811 52.1797H253.411C250.016 52.1797 247.264 54.9322 247.264 58.3275V61.8224C247.264 65.2177 250.016 67.9702 253.411 67.9702H275.811C279.206 67.9702 281.959 65.2177 281.959 61.8224V58.3275C281.959 54.9322 279.206 52.1797 275.811 52.1797Z" fill="#B88C26"/>
<path d="M311.664 52.1797H291.416C288.021 52.1797 285.269 54.9322 285.269 58.3275V61.8224C285.269 65.2177 288.021 67.9702 291.416 67.9702H311.664C315.06 67.9702 317.812 65.2177 317.812 61.8224V58.3275C317.812 54.9322 315.06 52.1797 311.664 52.1797Z" fill="#B88C26"/>
<path d="M311.664 139.656H291.416C288.021 139.656 285.269 142.408 285.269 145.804V152.752C285.269 156.147 288.021 158.9 291.416 158.9H311.664C315.06 158.9 317.812 156.147 317.812 152.752V145.804C317.812 142.408 315.06 139.656 311.664 139.656Z" fill="#918989" fill-opacity="0.25"/>
<path d="M347.528 52.1797H327.28C323.884 52.1797 321.132 54.9322 321.132 58.3275V61.8224C321.132 65.2177 323.884 67.9702 327.28 67.9702H347.528C350.923 67.9702 353.675 65.2177 353.675 61.8224V58.3275C353.675 54.9322 350.923 52.1797 347.528 52.1797Z" fill="#B88C26"/>
<path d="M347.528 94.1909H327.28C323.884 94.1909 321.132 96.9434 321.132 100.339V107.287C321.132 110.682 323.884 113.435 327.28 113.435H347.528C350.923 113.435 353.675 110.682 353.675 107.287V100.339C353.675 96.9434 350.923 94.1909 347.528 94.1909Z" fill="#918989" fill-opacity="0.25"/>
<path d="M311.664 162.375H291.416C288.021 162.375 285.269 165.128 285.269 168.523V175.472C285.269 178.867 288.021 181.619 291.416 181.619H311.664C315.06 181.619 317.812 178.867 317.812 175.472V168.523C317.812 165.128 315.06 162.375 311.664 162.375Z" fill="#918989" fill-opacity="0.25"/>
<path d="M347.528 71.459H327.28C323.884 71.459 321.132 74.2115 321.132 77.6068V84.5551C321.132 87.9504 323.884 90.7029 327.28 90.7029H347.528C350.923 90.7029 353.675 87.9504 353.675 84.5551V77.6068C353.675 74.2115 350.923 71.459 347.528 71.459Z" fill="#918989" fill-opacity="0.25"/>
<path d="M312.039 71.7617H291.791C288.396 71.7617 285.644 74.5142 285.644 77.9095V84.8578C285.644 88.2532 288.396 91.0056 291.791 91.0056H312.039C315.435 91.0056 318.187 88.2532 318.187 84.8578V77.9095C318.187 74.5142 315.435 71.7617 312.039 71.7617Z" fill="#918989" fill-opacity="0.25"/>
<path d="M347.528 116.923H327.28C323.884 116.923 321.132 119.676 321.132 123.071V130.019C321.132 133.415 323.884 136.167 327.28 136.167H347.528C350.923 136.167 353.675 133.415 353.675 130.019V123.071C353.675 119.676 350.923 116.923 347.528 116.923Z" fill="#918989" fill-opacity="0.25"/>
<path d="M311.664 116.923H291.416C288.021 116.923 285.269 119.676 285.269 123.071V130.019C285.269 133.415 288.021 136.167 291.416 136.167H311.664C315.06 136.167 317.812 133.415 317.812 130.019V123.071C317.812 119.676 315.06 116.923 311.664 116.923Z" fill="#918989" fill-opacity="0.25"/>
<path d="M311.664 185.108H291.416C288.021 185.108 285.269 187.861 285.269 191.256V199.298C285.269 202.693 288.021 205.445 291.416 205.445H311.664C315.06 205.445 317.812 202.693 317.812 199.298V191.256C317.812 187.861 315.06 185.108 311.664 185.108Z" fill="#918989" fill-opacity="0.25"/>
<path d="M311.664 94.1909H291.416C288.021 94.1909 285.269 96.9434 285.269 100.339V107.287C285.269 110.682 288.021 113.435 291.416 113.435H311.664C315.06 113.435 317.812 110.682 317.812 107.287V100.339C317.812 96.9434 315.06 94.1909 311.664 94.1909Z" fill="#918989" fill-opacity="0.25"/>
<path d="M347.528 185.108H327.28C323.884 185.108 321.132 187.861 321.132 191.256V199.298C321.132 202.693 323.884 205.445 327.28 205.445H347.528C350.923 205.445 353.675 202.693 353.675 199.298V191.256C353.675 187.861 350.923 185.108 347.528 185.108Z" fill="#918989" fill-opacity="0.25"/>
<path d="M252.724 38.135C254.501 38.135 255.941 36.6168 255.941 34.744C255.941 32.8712 254.501 31.353 252.724 31.353C250.947 31.353 249.507 32.8712 249.507 34.744C249.507 36.6168 250.947 38.135 252.724 38.135Z" fill="white" fill-opacity="0.7"/>
<path d="M267.522 34.7519C267.524 34.0806 267.336 33.4239 266.983 32.865C266.63 32.3062 266.128 31.8703 265.54 31.6127C264.952 31.355 264.304 31.2872 263.679 31.4178C263.054 31.5484 262.481 31.8715 262.03 32.3462C261.58 32.8209 261.273 33.4259 261.149 34.0844C261.025 34.7429 261.09 35.4254 261.334 36.0453C261.579 36.6653 261.992 37.1948 262.522 37.5668C263.053 37.9388 263.676 38.1365 264.313 38.1349C265.164 38.1349 265.98 37.7785 266.582 37.1441C267.184 36.5096 267.522 35.6492 267.522 34.7519Z" fill="#D8D7D7"/>
<path d="M279.104 34.7519C279.106 34.0806 278.918 33.4239 278.565 32.865C278.212 32.3062 277.71 31.8703 277.122 31.6127C276.534 31.355 275.886 31.2872 275.261 31.4178C274.637 31.5484 274.063 31.8715 273.612 32.3462C273.162 32.8209 272.855 33.4259 272.731 34.0844C272.607 34.7429 272.672 35.4254 272.916 36.0453C273.161 36.6653 273.574 37.1948 274.104 37.5668C274.635 37.9388 275.258 38.1365 275.895 38.1349C276.746 38.1349 277.562 37.7785 278.164 37.1441C278.766 36.5096 279.104 35.6492 279.104 34.7519Z" fill="#D8D7D7"/>
<rect x="330.318" y="118.839" width="4.50401" height="6.78192" rx="2.25201" fill="#6B2340"/>
<rect x="336.11" y="118.839" width="4.50401" height="6.78192" rx="2.25201" fill="#6B2340"/>
<rect x="341.901" y="118.839" width="4.50401" height="6.78192" rx="2.25201" fill="#6B2340"/>
<rect x="348.336" y="118.839" width="4.50401" height="6.78192" rx="2.25201" fill="#6B2340"/>
<rect x="262.76" y="97.8154" width="4.50401" height="6.78192" rx="2.25201" fill="#6B2340"/>
<rect x="268.55" y="97.8154" width="4.50401" height="6.78192" rx="2.25201" fill="#6B2340"/>
<rect x="274.341" y="97.8154" width="4.50401" height="6.78192" rx="2.25201" fill="#6B2340"/>
<rect x="280.774" y="97.8154" width="4.50401" height="6.78192" rx="2.25201" fill="#6B2340"/>
<rect x="429.407" y="118.839" width="4.50401" height="6.78192" rx="2.25201" fill="#6B2340"/>
<rect x="435.197" y="118.839" width="4.50401" height="6.78192" rx="2.25201" fill="#6B2340"/>
<rect x="440.988" y="118.839" width="4.50401" height="6.78192" rx="2.25201" fill="#6B2340"/>
<rect x="447.423" y="118.839" width="4.50401" height="6.78192" rx="2.25201" fill="#6B2340"/>
</g>
<path d="M685 191V214.13H580.677L565.612 231.886L567.333 214.133H560V191H685Z" fill="#E6E6E6"/>
<path d="M605.293 206.384C607.65 206.384 609.561 204.507 609.561 202.192C609.561 199.877 607.65 198 605.293 198C602.936 198 601.025 199.877 601.025 202.192C601.025 204.507 602.936 206.384 605.293 206.384Z" fill="#090814"/>
<path d="M590.89 206.384C593.247 206.384 595.157 204.507 595.157 202.192C595.157 199.877 593.247 198 590.89 198C588.533 198 586.622 199.877 586.622 202.192C586.622 204.507 588.533 206.384 590.89 206.384Z" fill="#090814"/>
<path d="M576.485 206.384C578.842 206.384 580.753 204.507 580.753 202.192C580.753 199.877 578.842 198 576.485 198C574.128 198 572.218 199.877 572.218 202.192C572.218 204.507 574.128 206.384 576.485 206.384Z" fill="#090814"/>
<path d="M668.26 370C667.849 370 667.434 369.968 667.017 369.903L620.805 362.652C618.642 362.313 616.754 361.143 615.487 359.357C614.221 357.572 613.74 355.403 614.134 353.25L623.775 300.6C624.562 296.312 628.551 293.458 632.867 294.087L678.326 300.787C680.482 301.105 682.376 302.251 683.659 304.012C684.942 305.774 685.451 307.927 685.092 310.077L676.204 363.277C675.55 367.195 672.12 370 668.26 370Z" fill="#E6E6E6"/>
<path d="M670.077 323.7C669.936 323.7 669.794 323.688 669.651 323.66L633.417 316.902C632.162 316.668 631.335 315.461 631.569 314.206C631.802 312.951 633.006 312.119 634.264 312.358L670.498 319.117C671.753 319.351 672.58 320.557 672.346 321.812C672.139 322.924 671.168 323.7 670.077 323.7Z" fill="#090814"/>
<path d="M666.659 335.796C666.554 335.796 666.45 335.789 666.343 335.775L631.605 331.044C630.34 330.872 629.455 329.707 629.627 328.442C629.8 327.177 630.968 326.291 632.229 326.464L666.968 331.195C668.232 331.367 669.118 332.532 668.945 333.797C668.787 334.956 667.796 335.796 666.659 335.796Z" fill="#090814"/>
<path d="M652.713 348.212C652.59 348.212 652.466 348.202 652.341 348.182L628.862 344.382C627.602 344.179 626.746 342.992 626.95 341.731C627.154 340.471 628.333 339.618 629.601 339.819L653.08 343.619C654.34 343.823 655.196 345.01 654.992 346.27C654.808 347.405 653.827 348.212 652.713 348.212Z" fill="#090814"/>
<path d="M143.533 36.9427H31.651C30.6827 36.9427 29.7541 36.558 29.0694 35.8733C28.3847 35.1886 28 34.26 28 33.2917C28 32.3233 28.3847 31.3947 29.0694 30.71C29.7541 30.0253 30.6827 29.6406 31.651 29.6406H143.533C144.501 29.6406 145.43 30.0253 146.114 30.71C146.799 31.3947 147.184 32.3233 147.184 33.2917C147.184 34.26 146.799 35.1886 146.114 35.8733C145.43 36.558 144.501 36.9427 143.533 36.9427Z" fill="#6B2340"/>
<path d="M80.1456 51.3558H31.651C30.6827 51.3558 29.7541 50.9711 29.0694 50.2864C28.3847 49.6017 28 48.6731 28 47.7047C28 46.7364 28.3847 45.8078 29.0694 45.1231C29.7541 44.4384 30.6827 44.0537 31.651 44.0537H80.1456C81.1139 44.0537 82.0426 44.4384 82.7273 45.1231C83.412 45.8078 83.7966 46.7364 83.7966 47.7047C83.7966 48.6731 83.412 49.6017 82.7273 50.2864C82.0426 50.9711 81.1139 51.3558 80.1456 51.3558Z" fill="#B8956A"/>
<path d="M180.694 55C188.702 55 195.194 48.5081 195.194 40.5C195.194 32.4919 188.702 26 180.694 26C172.686 26 166.194 32.4919 166.194 40.5C166.194 48.5081 172.686 55 180.694 55Z" fill="#6B2340"/>
<path d="M178.287 45.7113H178.194C177.922 45.6977 177.656 45.6255 177.414 45.4998C177.172 45.374 176.96 45.1976 176.793 44.9826L174.368 41.8726C174.215 41.6758 174.103 41.4509 174.037 41.2105C173.971 40.9702 173.952 40.7192 173.983 40.4719C174.014 40.2246 174.094 39.9858 174.217 39.7692C174.341 39.5526 174.505 39.3624 174.702 39.2095L174.789 39.1402C174.986 38.9869 175.211 38.8739 175.451 38.8078C175.691 38.7416 175.942 38.7235 176.19 38.7546C176.437 38.7856 176.676 38.8651 176.893 38.9886C177.109 39.1121 177.299 39.2771 177.452 39.4741C177.574 39.6312 177.729 39.7599 177.906 39.8516C178.083 39.9434 178.277 39.9959 178.476 40.0056C178.675 40.0153 178.874 39.9819 179.059 39.9078C179.243 39.8336 179.41 39.7205 179.547 39.576L184.464 34.3711C184.81 34.0061 185.287 33.7934 185.79 33.7795C186.293 33.7657 186.78 33.9519 187.146 34.2973L187.226 34.3733C187.408 34.5445 187.553 34.7496 187.655 34.9772C187.757 35.2047 187.813 35.4501 187.82 35.6993C187.827 35.9484 187.784 36.1966 187.695 36.4294C187.606 36.6622 187.472 36.8752 187.3 37.056L179.664 45.115C179.487 45.3021 179.273 45.451 179.037 45.5528C178.8 45.6546 178.545 45.707 178.287 45.7069V45.7113Z" fill="white"/>
<path d="M143.533 83.9427H31.651C30.6827 83.9427 29.7541 83.558 29.0694 82.8733C28.3847 82.1886 28 81.26 28 80.2917C28 79.3233 28.3847 78.3947 29.0694 77.71C29.7541 77.0253 30.6827 76.6406 31.651 76.6406H143.533C144.501 76.6406 145.43 77.0253 146.114 77.71C146.799 78.3947 147.184 79.3233 147.184 80.2917C147.184 81.26 146.799 82.1886 146.114 82.8733C145.43 83.558 144.501 83.9427 143.533 83.9427Z" fill="#6B2340"/>
<path d="M80.1456 98.3558H31.651C30.6827 98.3558 29.7541 97.9711 29.0694 97.2864C28.3847 96.6017 28 95.6731 28 94.7047C28 93.7364 28.3847 92.8078 29.0694 92.1231C29.7541 91.4384 30.6827 91.0537 31.651 91.0537H80.1456C81.1139 91.0537 82.0426 91.4384 82.7273 92.1231C83.412 92.8078 83.7966 93.7364 83.7966 94.7047C83.7966 95.6731 83.412 96.6017 82.7273 97.2864C82.0426 97.9711 81.1139 98.3558 80.1456 98.3558Z" fill="#B8956A"/>
<path d="M180.694 102C188.702 102 195.194 95.5081 195.194 87.5C195.194 79.4919 188.702 73 180.694 73C172.686 73 166.194 79.4919 166.194 87.5C166.194 95.5081 172.686 102 180.694 102Z" fill="#6B2340"/>
<path d="M178.287 92.7113H178.194C177.922 92.6977 177.656 92.6255 177.414 92.4998C177.172 92.374 176.96 92.1976 176.793 91.9826L174.368 88.8726C174.215 88.6758 174.103 88.4509 174.037 88.2105C173.971 87.9702 173.952 87.7192 173.983 87.4719C174.014 87.2246 174.094 86.9858 174.217 86.7692C174.341 86.5526 174.505 86.3624 174.702 86.2095L174.789 86.1402C174.986 85.9869 175.211 85.8739 175.451 85.8078C175.691 85.7416 175.942 85.7235 176.19 85.7546C176.437 85.7856 176.676 85.8651 176.893 85.9886C177.109 86.1121 177.299 86.2771 177.452 86.4741C177.574 86.6312 177.729 86.7599 177.906 86.8516C178.083 86.9434 178.277 86.9959 178.476 87.0056C178.675 87.0153 178.874 86.9819 179.059 86.9078C179.243 86.8336 179.41 86.7205 179.547 86.576L184.464 81.3711C184.81 81.0061 185.287 80.7934 185.79 80.7795C186.293 80.7657 186.78 80.9519 187.146 81.2973L187.226 81.3733C187.408 81.5445 187.553 81.7496 187.655 81.9772C187.757 82.2047 187.813 82.4501 187.82 82.6993C187.827 82.9484 187.784 83.1966 187.695 83.4294C187.606 83.6622 187.472 83.8752 187.3 84.056L179.664 92.115C179.487 92.3021 179.273 92.451 179.037 92.5528C178.8 92.6546 178.545 92.707 178.287 92.7069V92.7113Z" fill="white"/>
<path d="M684.662 70.7357H587.3C587.22 70.7357 587.144 70.7041 587.088 70.6479C587.032 70.5916 587 70.5153 587 70.4358C587 68.3268 684.967 70.2678 684.967 70.4358C684.967 70.4756 684.959 70.515 684.944 70.5517C684.928 70.5885 684.906 70.6217 684.877 70.6497C684.849 70.6776 684.815 70.6996 684.778 70.7144C684.741 70.7291 684.702 70.7364 684.662 70.7357Z" fill="#090814"/>
<path d="M608.1 67.3849H599.245C599.006 67.3836 598.778 67.2884 598.61 67.1199C598.441 66.9514 598.346 66.7232 598.345 66.4849V54.2779C598.346 54.0396 598.441 53.8115 598.61 53.643C598.778 53.4745 599.006 53.3792 599.245 53.3779H608.1C608.338 53.3792 608.566 53.4745 608.735 53.643C608.903 53.8115 608.998 54.0396 609 54.2779V66.4779C609 66.7174 608.906 66.9474 608.737 67.1174C608.568 67.2874 608.339 67.3836 608.1 67.3849Z" fill="#919191"/>
<path d="M624.25 67.3849H615.395C615.157 67.3836 614.929 67.2883 614.76 67.1198C614.592 66.9513 614.496 66.7232 614.495 66.4849V42.6949C614.496 42.4566 614.592 42.2285 614.76 42.06C614.929 41.8915 615.157 41.7962 615.395 41.7949H624.25C624.488 41.7962 624.717 41.8915 624.885 42.06C625.054 42.2285 625.149 42.4566 625.15 42.6949V66.4769C625.151 66.7166 625.057 66.9468 624.888 67.117C624.719 67.2872 624.49 67.3836 624.25 67.3849Z" fill="#919191"/>
<path d="M640.396 67.3849H631.541C631.302 67.3836 631.074 67.2884 630.906 67.1199C630.737 66.9514 630.642 66.7232 630.641 66.4849V54.2779C630.642 54.0396 630.737 53.8115 630.906 53.643C631.074 53.4745 631.302 53.3792 631.541 53.3779H640.396C640.634 53.3792 640.862 53.4745 641.031 53.643C641.199 53.8115 641.294 54.0396 641.296 54.2779V66.4779C641.296 66.7174 641.202 66.9474 641.033 67.1174C640.864 67.2874 640.635 67.3836 640.396 67.3849Z" fill="#919191"/>
<path d="M656.546 67.3848H647.691C647.458 67.3886 647.232 67.3 647.064 67.1384C646.895 66.9768 646.797 66.7552 646.791 66.5218V38.0848C646.797 37.8514 646.895 37.6298 647.064 37.4682C647.232 37.3066 647.458 37.218 647.691 37.2218H656.546C656.779 37.218 657.005 37.3066 657.174 37.4682C657.342 37.6298 657.44 37.8514 657.446 38.0848V66.5218C657.44 66.7552 657.342 66.9768 657.174 67.1384C657.005 67.3 656.779 67.3886 656.546 67.3848Z" fill="#919191"/>
<path d="M672.696 67.386H663.841C663.603 67.3847 663.375 67.2894 663.206 67.1209C663.038 66.9524 662.943 66.7243 662.941 66.486V29.9C662.943 29.6617 663.038 29.4336 663.206 29.2651C663.375 29.0966 663.603 29.0013 663.841 29H672.696C672.935 29.0013 673.163 29.0966 673.331 29.2651C673.5 29.4336 673.595 29.6617 673.596 29.9V66.481C673.596 66.7202 673.502 66.9496 673.333 67.1192C673.164 67.2887 672.936 67.3847 672.696 67.386Z" fill="#919191"/>
<path d="M531.154 359.357C530.58 357.945 530.036 356.321 530.61 354.909C530.985 354.078 531.628 353.424 532.418 353.071C533.2 352.726 534.024 352.506 534.864 352.418C537.502 352.043 540.171 352.004 542.817 352.3C543.011 353.953 542.603 355.63 542.252 357.227C541.934 358.698 541.752 358.916 540.349 358.992C539.441 359.045 531.369 359.878 531.154 359.357Z" fill="#ED9DA0"/>
<path d="M555.358 349.831C576.825 349.831 594.228 344.564 594.228 338.065C594.228 331.567 576.825 326.299 555.358 326.299C533.892 326.299 516.489 331.567 516.489 338.065C516.489 344.564 533.892 349.831 555.358 349.831Z" fill="#090814"/>
<path d="M562.329 275.952C560.997 278.738 558.784 280.913 556.094 282.082C554.51 282.707 552.843 283.05 551.158 283.099C549.312 283.189 547.427 283.061 545.694 282.378C543.367 281.466 541.435 279.601 539.986 277.428C538.537 275.254 537.54 272.771 536.673 270.268C536.216 268.965 535.781 267.576 535.996 266.201C537.396 265.857 538.929 265.351 539.652 264.006C540.269 262.853 540.098 261.471 539.742 260.153C539.641 259.78 539.524 259.409 539.407 259.053C539.135 258.2 538.198 256.579 538.85 255.849C539.265 255.388 541.008 255.152 541.609 254.852C543.461 253.928 545.167 252.593 547.2 252.154C548.959 251.775 550.775 252.131 552.531 252.525C552.764 252.562 552.987 252.649 553.188 252.781C553.418 252.99 553.587 253.266 553.677 253.575C554.178 254.893 554.471 256.349 554.873 257.723C555.292 259.161 555.83 260.512 556.839 261.532C557.624 262.33 558.624 262.83 559.602 263.315L562.01 264.509C562.439 264.683 562.827 264.955 563.149 265.306C563.464 265.775 563.652 266.329 563.693 266.907C564.124 270.002 563.647 273.166 562.328 275.952L562.329 275.952Z" fill="#ED9DA0"/>
<path d="M546.681 263.215C553.985 263.215 559.907 256.806 559.907 248.901C559.907 240.997 553.985 234.588 546.681 234.588C539.376 234.588 533.455 240.997 533.455 248.901C533.455 256.806 539.376 263.215 546.681 263.215Z" fill="#ED9DA0"/>
<path d="M583.939 291.674L582.912 284.938C582.392 281.558 581.857 278.113 580.405 275.069C579.451 273.074 566.086 265.209 564.809 264.344C563.531 263.479 561.941 262.873 560.528 263.426C560.3 266.058 560.058 268.749 559.025 271.148C558.352 272.708 557.366 274.087 556.139 275.182C554.911 276.278 553.472 277.062 551.928 277.478C550.384 277.895 548.774 277.932 547.215 277.588C545.656 277.244 544.187 276.528 542.917 275.491C540.495 273.517 538.943 270.472 538.219 267.287C538.043 266.509 537.842 265.619 537.181 265.263C536.466 264.874 535.606 265.345 535.007 265.916C533.906 266.972 533.031 268.484 531.601 268.84C531.084 268.969 521.286 273.832 520.731 274.676C520.176 275.52 519.915 276.564 519.644 277.577C522.614 284.736 525.333 291.905 528.303 299.065C528.443 299.335 528.517 299.638 528.518 299.947C528.459 300.268 528.332 300.57 528.148 300.83C526.692 303.363 526.738 306.548 526.898 309.525C527.058 312.502 527.254 315.646 526.026 318.315C525.691 319.047 523.925 327.416 524.359 329.198H585.789C584.618 325.713 585.064 318.718 585.308 315.017C585.48 312.429 585.036 309.844 584.846 307.254C584.447 301.967 584.746 296.951 583.939 291.674Z" fill="#E3E1E1"/>
<path d="M587.085 327.138C587.99 326.764 588.987 326.898 589.959 327.04C593.081 327.502 596.251 327.976 599.146 329.326C600.505 329.954 601.799 330.797 602.718 332.035C603.533 333.15 604.009 334.515 604.459 335.859L605.502 338.945C605.899 340.121 606.301 341.322 606.414 342.572C606.74 346.275 604.4 349.767 601.456 351.691C598.513 353.615 595.047 354.3 591.671 355.018C588.295 355.735 584.906 356.53 581.543 357.371C579.975 357.811 578.384 358.15 576.779 358.386C573.18 358.827 569.418 358.176 565.999 359.465C564.64 359.98 563.305 360.745 561.894 361.101C560.958 361.323 560.012 361.488 559.059 361.595L552.587 362.395C551.271 362.585 549.946 362.695 548.619 362.724C545.792 362.724 543.011 362 540.266 361.277C539.974 361.221 539.696 361.1 539.45 360.921C539.015 360.55 538.92 359.894 538.858 359.3C538.582 356.67 538.339 354.038 538.13 351.402C538.064 350.546 538.015 349.619 538.448 348.898C538.991 348.016 540.05 347.74 541.019 347.569C545.122 346.842 549.279 346.53 553.435 346.636C555.015 344.927 557.619 344.919 559.687 343.989C560.448 343.611 561.184 343.177 561.891 342.692C565.59 340.356 569.723 338.942 573.99 338.553C574.826 338.525 575.656 338.397 576.466 338.17C578.067 337.632 579.527 336.166 581.171 336.525C581.375 335.916 581.516 335.102 581.986 334.684C582.22 334.469 582.508 334.325 582.723 334.096C583.177 333.598 583.218 332.816 583.15 332.122C583.082 331.428 582.929 330.716 583.094 330.039C583.163 329.783 583.265 329.538 583.396 329.312C584.215 327.767 585.447 326.991 587.085 327.138Z" fill="#090814"/>
<path d="M533.654 361.175C531.971 363.284 530.49 364.037 527.856 363.969C526.236 363.928 524.618 363.836 523.002 363.695C521.897 363.566 520.787 363.51 519.676 363.527C516.322 363.668 513.084 365.33 509.738 365.039C509.244 364.997 508.754 364.898 508.279 364.745C507.524 364.517 506.842 364.068 506.308 363.447C505.667 362.662 505.36 361.621 505.183 360.591C504.289 355.314 506.74 349.566 511.033 346.88C511.593 346.489 512.229 346.244 512.892 346.166C513.542 346.163 514.184 346.316 514.773 346.614L514.814 346.632C516.557 347.408 518.141 348.552 519.472 349.997C519.674 350.247 519.916 350.457 520.185 350.618C520.453 350.727 520.737 350.785 521.024 350.788L524.596 351.032C525.201 351.052 525.803 351.143 526.39 351.302C527.038 351.546 527.668 351.841 528.276 352.184C530.198 353.114 532.329 353.361 534.406 353.719C534.606 353.731 534.797 353.814 534.949 353.955C535.032 354.066 535.09 354.197 535.118 354.337C535.408 355.52 535.426 356.761 535.171 357.953C534.916 359.145 534.396 360.252 533.656 361.176L533.654 361.175Z" fill="#323144"/>
<path d="M583.975 353.947C585.973 353.888 588.215 353.78 589.683 355.236C591.083 356.611 591.268 358.884 591.36 360.928L591.466 363.301C591.499 364.025 591.526 364.772 591.257 365.443C590.779 366.62 589.466 367.187 588.267 367.12C587.069 367.052 585.968 366.484 584.872 365.973C581.899 364.586 578.802 363.531 575.631 362.822C575.734 361.181 575.906 359.547 576.147 357.921C576.313 356.795 576.341 354.909 577.036 353.974C577.773 352.987 578.732 353.521 579.732 353.705C581.136 353.937 582.557 354.018 583.975 353.949V353.947Z" fill="#ED9DA0"/>
<path d="M531.184 330.097C531.184 330.391 530.758 330.097 530.719 329.783C530.42 327.403 528.675 325.441 526.642 324.488C524.61 323.535 522.293 323.485 520.092 323.71C516.762 324.051 513.038 325.431 511.807 328.799C511.519 329.588 511.388 330.441 511.035 331.197C510.643 332.026 510.005 332.688 509.581 333.494C508.849 334.888 508.82 336.597 509.083 338.174C509.793 342.381 512.451 345.979 515.672 348.47C518.893 350.96 522.658 352.449 526.411 353.791C536.337 357.334 546.52 359.966 556.854 361.66C558.528 361.934 560.219 362.187 561.823 362.769C563.258 363.29 564.601 364.069 566.003 364.681C569.264 366.099 572.774 366.605 576.251 367.103C576.843 367.186 577.522 367.245 577.96 366.809C578.526 366.241 578.338 365.254 578.178 364.438C577.588 361.343 578.081 358.12 579.561 355.396C580.142 354.337 580.899 353.252 580.79 352.025C580.66 350.596 579.344 349.584 578.034 349.354C576.724 349.125 575.392 349.463 574.076 349.649C573.621 349.76 573.144 349.709 572.717 349.504C572.522 349.362 572.344 349.191 572.19 348.998C571.284 348.052 570.124 347.441 568.876 347.252C567.629 347.064 566.359 347.307 565.248 347.948C564.761 348.242 564.025 347.586 563.519 347.339L557.808 344.536C551.241 341.321 544.641 338.091 537.694 336.055C537.14 335.937 536.613 335.7 536.145 335.358C535.799 335.064 535.552 334.664 535.233 334.338C534.54 333.628 533.575 333.346 532.743 332.842C531.911 332.338 530.989 331.106 531.184 330.097Z" fill="#090814"/>
<path d="M615.334 368.978C614.422 370.811 612.649 371.952 610.747 372.423C610.27 372.54 609.784 372.614 609.295 372.647C606.89 372.808 604.515 372.088 602.196 371.376L599.048 370.411C598.507 370.227 597.952 370.093 597.39 370.011C596.625 369.956 595.857 369.984 595.097 370.096C591.377 370.471 587.523 368.4 583.85 367.667C583.542 367.631 583.396 363.91 583.85 362.931C584.304 361.951 584.605 353.079 585.549 353.215C586.492 353.35 587.416 353.638 588.364 353.718C591.153 353.959 594.005 352.402 596.682 353.279C597.272 353.473 597.829 353.782 598.427 353.953C599.593 354.235 600.811 354.121 601.915 353.626C602.306 353.467 602.688 353.276 603.07 353.088C603.804 352.674 604.585 352.369 605.394 352.179C608.006 351.694 610.428 353.65 612.398 355.558C613.075 356.166 613.674 356.868 614.179 357.647C614.685 358.592 615.052 359.618 615.266 360.686C615.983 363.413 616.578 366.478 615.334 368.978Z" fill="#323144"/>
<path d="M530.27 304.676C529.942 310.518 525.981 315.345 524.472 320.964C524.098 322.369 523.872 323.829 523.334 325.167C522.247 327.859 520.009 329.812 517.626 331.189C516.756 331.733 515.805 332.107 514.815 332.295C513.727 332.433 512.627 332.208 511.66 331.651C510.693 331.095 509.906 330.233 509.403 329.18C508.781 327.812 508.694 326.238 508.316 324.768C507.894 323.071 507.106 321.506 506.593 319.838C505.647 316.77 505.666 313.41 506.321 310.257C506.941 307.515 507.924 304.884 509.237 302.444C509.428 302.083 509.62 301.724 509.817 301.368C510.378 300.339 511.008 299.356 511.701 298.426C513.331 296.299 515.427 294.664 517.501 293.052C517.66 292.911 517.845 292.81 518.045 292.758H518.077C518.311 292.749 518.543 292.808 518.749 292.928C521.625 294.274 524.386 295.892 526.999 297.764C527.934 298.438 529.41 299.191 529.9 300.338C530.391 301.485 530.341 303.429 530.27 304.676Z" fill="#ED9DA0"/>
<path d="M519.48 277.793C519.215 278.093 519.01 278.448 518.876 278.837C516.679 284.196 515.381 289.935 515.044 295.786C515.05 296.072 514.989 296.354 514.867 296.607C514.747 296.775 514.613 296.932 514.468 297.075C514.335 297.245 514.237 297.442 514.178 297.655C514.119 297.867 514.101 298.091 514.125 298.312C514.148 298.532 514.214 298.745 514.317 298.937C514.42 299.129 514.558 299.296 514.723 299.428C515.172 298.513 516.245 298.216 517.2 298.137C521.769 297.746 526.232 300.046 530.815 299.871C530.491 298.662 530.026 297.501 529.763 296.277C528.596 290.844 531.504 284.928 529.722 279.695C529.365 278.648 528.77 277.618 527.833 277.159C527.444 276.99 527.038 276.873 526.623 276.812C525.465 276.586 523.16 275.618 522.04 276.005C521.626 276.149 521.464 276.57 521.121 276.822C520.613 277.187 519.923 277.313 519.48 277.793Z" fill="#E3E1E1"/>
<path opacity="0.046" d="M520.845 326.433C520.194 327.701 519.248 328.762 518.1 329.511C516.953 330.26 515.644 330.67 514.304 330.701C513.585 330.722 512.871 330.574 512.211 330.269C510.538 329.439 509.594 327.386 509.244 325.368C508.893 323.35 509.003 321.267 508.754 319.229C508.555 317.605 508.131 316.029 507.912 314.408C507.372 310.398 508.435 306.439 509.191 302.447C509.374 302.085 509.56 301.726 509.751 301.371C510.289 300.344 510.895 299.361 511.564 298.429C513.134 296.302 515.151 294.667 517.148 293.055H515.055C515.105 293.013 515.164 292.987 515.227 292.979C515.289 292.972 515.353 292.983 515.41 293.011C515.468 293.04 515.518 293.085 515.556 293.142C515.593 293.199 515.616 293.265 515.622 293.334C515.829 295.393 518.412 297.452 518.974 299.452C519.322 300.682 519.741 301.888 520.02 303.141C520.241 304.209 520.409 305.29 520.523 306.377C520.894 309.423 521.264 312.462 521.632 315.496C522.096 319.199 522.494 323.203 520.845 326.433Z" fill="black"/>
<path d="M517.753 287.808L520.376 278.904C520.768 277.572 521.165 276.219 521.211 274.818C521.257 273.418 520.918 271.95 520.012 270.95C519.278 270.143 518.262 269.724 517.392 269.091C515.218 267.506 514.131 264.729 512.997 262.172C511.862 259.616 510.977 257.345 508.504 256.398C507.933 256.18 507.145 256.163 506.889 256.754C506.801 257 506.787 257.269 506.848 257.525C507.005 258.68 507.461 259.765 508.164 260.652C509.477 262.49 510.575 264.74 510.26 267.041C509.885 269.765 507.623 271.877 507.351 274.615C507.232 275.821 507.517 277.03 507.514 278.245C507.514 278.998 507.4 279.766 507.555 280.501C507.716 281.07 507.907 281.628 508.129 282.172C508.371 283.052 508.497 283.964 508.504 284.881L509.077 296.459C509.387 302.722 506.248 308.814 507.112 314.991C507.34 316.612 507.781 318.188 507.987 319.812C508.259 321.851 508.131 323.931 508.495 325.951C508.86 327.972 509.854 330.022 511.578 330.852C512.267 331.158 513.007 331.306 513.752 331.284C515.128 331.264 516.476 330.861 517.666 330.113C518.856 329.366 519.848 328.299 520.547 327.016C522.261 323.78 521.846 319.783 521.379 316.094L520.227 306.978C520.108 305.89 519.934 304.809 519.705 303.742C519.417 302.489 518.982 301.283 518.618 300.053C517.452 296.032 516.579 291.804 517.753 287.808Z" fill="#ED9DA0"/>
<path d="M587.541 288.5H531.331C530.115 288.5 529.129 289.567 529.129 290.883V327.887C529.129 329.203 530.115 330.27 531.331 330.27H587.541C588.757 330.27 589.743 329.203 589.743 327.887V290.883C589.743 289.567 588.757 288.5 587.541 288.5Z" fill="#3F3D56"/>
<path opacity="0.2" d="M587.541 288.5H531.331C530.115 288.5 529.129 289.567 529.129 290.883V327.887C529.129 329.203 530.115 330.27 531.331 330.27H587.541C588.757 330.27 589.743 329.203 589.743 327.887V290.883C589.743 289.567 588.757 288.5 587.541 288.5Z" fill="black"/>
<path d="M559.301 311.151C560.202 311.151 560.932 310.36 560.932 309.386C560.932 308.411 560.202 307.621 559.301 307.621C558.4 307.621 557.67 308.411 557.67 309.386C557.67 310.36 558.4 311.151 559.301 311.151Z" fill="white"/>
<path d="M553.623 251.876L551.568 250.884C551.568 250.884 551.568 240.689 547.616 241.135C543.663 241.581 533.798 240.899 534.557 236.246C535.315 231.593 545.003 230.585 550.398 230.869C555.793 231.153 564.532 235.963 562.572 244.586C561.581 248.94 558.36 256.645 558.36 256.645L554.45 260.287L556.322 255.809L553.623 251.876Z" fill="#090814"/>
<path d="M44.323 344.026C44.323 344.026 49.1497 347.739 49.1497 351.452C49.1497 351.452 51.7485 355.537 54.7195 355.165V362.963C54.7195 362.963 64.002 367.79 56.9474 368.904C49.8928 370.017 44.6945 361.106 44.6945 361.106C44.6945 361.106 38.0108 350.338 39.1248 348.853C40.2387 347.368 44.323 344.026 44.323 344.026Z" fill="#090814"/>
<path d="M87.3937 355.166L91.1064 359.25L89.621 362.592L85.1652 364.078L77.3675 361.107L78.4815 356.651L87.3937 355.166Z" fill="#ED9DA0"/>
<path d="M77.3692 359.25C77.3692 359.25 85.9607 363.705 88.1084 361.849C88.7342 361.325 89.2468 360.678 89.615 359.949C89.9833 359.22 90.1995 358.424 90.2506 357.609C90.2506 357.609 94.5521 358.136 97.416 359.991C100.28 361.847 103.805 362.492 106.009 364.076C108.212 365.66 108.156 368.532 101.357 368.902C94.5576 369.273 77.3728 368.531 77.3728 366.675L77.3692 359.25Z" fill="#090814"/>
<path d="M192.95 285.444C191.352 291.853 184.989 282.167 183.541 279.842L183.246 279.361L183.938 276.416L187.586 275.06C188.163 275.334 188.709 275.657 189.218 276.026C191.211 277.446 194.184 280.485 192.95 285.444Z" fill="#ED9DA0"/>
<path d="M242.311 274.963C242.307 275.012 242.294 275.059 242.272 275.104L242.219 275.263C241.599 277.261 237.886 288.521 234.307 285.408C230.385 281.981 232.293 274.103 232.293 274.103H232.317L240.549 273.336L242.18 274.862L242.311 274.963Z" fill="#ED9DA0"/>
<path d="M237.536 330.356C234.515 356.723 234.781 361.068 234.781 361.068L224.128 361.451C224.128 361.451 223.387 355.418 223.387 344.365C223.387 344.365 215.645 300.228 213.476 293.528C213.534 293.819 211.834 306.071 211.834 306.071L212.149 325.293L212.362 338.428L212.47 359.577H201.009L199.217 349.657C199.217 349.657 198.587 330.816 197.58 326.758C196.977 324.354 194.375 308.198 194.375 308.198L191.91 292.937C191.98 290 191.568 287.07 190.689 284.243C189.236 279.899 187.14 274.201 187.14 274.201L189.532 274.395L201.637 275.374C201.637 275.374 231.004 273.574 232.321 275.07C232.599 275.557 232.786 276.083 232.873 276.627C234.19 282.026 235.933 298.927 235.933 298.927L237.536 330.356Z" fill="#090814"/>
<path d="M212.71 367.74C212.628 368.936 211.161 369.006 211.161 369.006C206.866 369.624 205.951 371.145 205.951 371.145C204.556 372.288 202.919 373.16 201.142 373.709C199.365 374.257 197.483 374.47 195.613 374.334C190.331 373.893 190.848 373.011 191.114 371.422C191.169 371.13 191.198 370.834 191.201 370.538C191.201 368.364 193.027 367.75 195.893 366.127C198.76 364.504 198.673 363.119 199.869 361.928C201.065 360.737 201.181 358.4 201.181 358.4C202.532 356.261 205.95 358.722 205.95 358.722C206.11 359.48 211.199 359.375 211.199 359.375C211.199 359.375 211.877 361.836 212.221 361.981C212.453 362.079 212.623 364.01 212.705 365.668C212.73 366.513 212.739 367.298 212.71 367.74Z" fill="#090814"/>
<path d="M245.073 374.163C244.788 374.637 244.315 374.994 243.751 375.159H243.649C241.901 375.481 235.137 375.481 235.137 375.481C235.137 375.481 228.3 370.671 226.232 370.559C225.592 370.497 224.974 370.307 224.424 370.002C223.874 369.697 223.405 369.285 223.051 368.795C223.051 368.795 223.09 367.675 223.225 366.373C223.385 364.83 223.665 363.039 224.165 362.567C225.08 361.683 225.278 360.503 227.346 361.244C227.346 361.244 230.285 356.529 233.741 360.172L237.324 365.121C237.324 365.121 237.997 367.185 242.533 369.395C244.349 370.278 245.172 371.322 245.385 372.275C245.552 372.917 245.439 373.594 245.07 374.162L245.073 374.163Z" fill="#090814"/>
<path d="M216.164 205.642L206.378 215.058C206.378 215.058 194.529 214.264 196.597 211.089C197.652 209.465 197.818 206.065 197.725 203.11C197.638 200.26 197.313 197.817 197.313 197.817C197.313 197.817 213.936 190.284 212.663 197.31C212.39 198.635 212.374 199.993 212.614 201.324C213.352 204.87 216.164 205.642 216.164 205.642Z" fill="#ED9DA0"/>
<path d="M216.163 192.895C216.163 195.101 215.445 197.258 214.099 199.092C212.754 200.927 210.841 202.357 208.603 203.201C206.366 204.045 203.903 204.266 201.528 203.835C199.152 203.405 196.97 202.342 195.258 200.782C193.545 199.222 192.379 197.234 191.907 195.07C191.435 192.906 191.677 190.664 192.605 188.625C193.532 186.587 195.102 184.845 197.116 183.62C199.13 182.394 201.497 181.74 203.919 181.741C207.166 181.742 210.28 182.918 212.576 185.01C214.871 187.101 216.162 189.938 216.163 192.895Z" fill="#ED9DA0"/>
<path d="M210.164 282.497L208.256 282.316C196.587 283.816 191.561 279.63 189.79 277.464C189.473 277.092 189.201 276.69 188.977 276.265L193.707 252.006L194.821 216.28L196.531 210.017L196.923 207.009V206.974H196.966L198.172 207.446C198.172 207.446 201.536 210.989 205.393 210.29C209.25 209.591 213.596 204.649 213.596 204.649L213.712 204.565L214.124 204.288L214.802 204.782L216.487 206.012L221.896 237.817C221.896 237.817 231.275 262.305 233.033 272.189C233.101 272.582 233.159 272.948 233.203 273.296C234.341 282.329 210.164 282.497 210.164 282.497Z" fill="#F7F7F7"/>
<path d="M180.385 228.603L177.364 230.248L174.609 241.403C174.609 241.403 171.16 250.868 173.81 257.625C176.46 264.382 177.998 268.25 177.998 268.25C177.998 268.25 179.059 275.929 180.652 276.555C182.245 277.182 182.932 277.521 182.932 277.521L183.247 279.356C183.247 279.356 187.561 278.033 189.091 275.673C190.621 273.314 187.968 267.479 187.968 267.479C187.968 267.479 185.687 262.504 186.268 260.188C186.849 257.872 185.106 251.808 185.106 251.64C185.106 251.472 184.946 248.257 186.215 245.774C187.483 243.291 186.641 242.224 186.641 242.224L185.847 235.122L180.385 228.603Z" fill="#D8D8D8"/>
<path d="M233.775 217.431L239.625 220.21C239.625 220.21 244.467 231.678 245.275 236.622C245.275 236.622 248.883 249.814 246.389 255.243C243.895 260.671 244.113 271.438 244.113 271.438C244.113 271.438 242.661 273.419 242.094 272.885C241.527 272.352 242.307 274.963 242.307 274.963C242.307 274.963 232.319 276.171 232.274 274.385C232.229 272.598 234.564 264.051 234.564 264.051C234.564 264.051 235.199 243.718 234.298 240.533C233.398 237.349 233.775 217.431 233.775 217.431Z" fill="#D8D8D8"/>
<path d="M197.677 206.806L197.517 206.731C197.286 206.626 197.026 206.584 196.769 206.609C196.511 206.634 196.267 206.725 196.065 206.872L180.333 218.498C180.333 218.498 176.914 222.807 177.389 230.247L186.628 242.221C186.628 242.221 187.688 238.164 188.963 238.936C188.963 238.936 190.764 259.701 188.963 262.694C187.161 265.688 186.376 276.879 186.376 276.879L192.472 277.505C192.472 277.505 193.111 269.923 194.54 267.22C195.968 264.516 196.752 255.227 196.752 255.227C196.752 255.227 198.04 241.722 197.827 235.926C197.614 230.13 195.76 217.675 195.76 217.675C195.76 217.675 196.278 210.387 197.677 206.806Z" fill="#D8D8D8"/>
<path opacity="0.1" d="M213.136 204.481C213.183 204.473 213.231 204.474 213.277 204.483C213.324 204.492 213.368 204.509 213.407 204.534L213.136 204.481Z" fill="black"/>
<path d="M213.771 203.904L231.12 207.307C231.12 207.307 235.889 208.273 239.351 219.186C242.813 230.1 234.635 243.471 234.635 243.471L232.829 242.078L233.734 273.949C233.734 273.949 225.726 276.701 223.183 274.288C220.641 271.876 220.903 260.572 220.903 260.572C220.903 260.572 218.482 239.709 216.927 236.282C215.373 232.855 216.162 208.129 216.162 208.129C216.162 208.129 214.739 203.71 213.771 203.904Z" fill="#D8D8D8"/>
<path d="M200.136 198.168L201.882 197.094C201.882 197.094 200.35 189.176 204.063 188.937C207.777 188.697 216.774 186.706 215.375 183.204C213.976 179.702 204.889 180.358 199.955 181.378C195.021 182.398 187.682 187.429 190.786 193.834C192.354 197.069 194.618 200.627 196.481 202.574C196.915 202.942 197.461 203.181 198.048 203.257L198.235 201.623L200.136 198.168Z" fill="#090814"/>
<path d="M84.48 222.633L80.9111 244.762C80.9111 244.762 80.9111 264.749 81.9819 265.106C83.0527 265.463 87.6924 265.106 87.6924 265.106V242.62L86.2645 222.99L84.48 222.633Z" fill="#D8D8D8"/>
<path d="M203.847 221.882C204.346 221.721 204.888 221.764 205.355 222.002C205.821 222.241 206.174 222.654 206.337 223.153L216.541 254.629C216.702 255.128 216.659 255.67 216.421 256.137C216.182 256.604 215.769 256.957 215.271 257.119L88.3744 298.254C87.8758 298.415 87.3337 298.372 86.867 298.134C86.4003 297.895 86.0472 297.482 85.8851 296.984L75.6803 265.505C75.5193 265.006 75.5626 264.464 75.8007 263.997C76.0389 263.531 76.4524 263.178 76.9505 263.015L203.847 221.882Z" fill="white"/>
<path d="M203.847 221.882C204.346 221.721 204.888 221.764 205.355 222.002C205.821 222.241 206.174 222.654 206.337 223.153L216.541 254.629C216.702 255.128 216.659 255.67 216.421 256.137C216.182 256.604 215.769 256.957 215.271 257.119L88.3744 298.254C87.8758 298.415 87.3337 298.372 86.867 298.134C86.4003 297.895 86.0472 297.482 85.8851 296.984L75.6803 265.505C75.5193 265.006 75.5626 264.464 75.8007 263.997C76.0389 263.531 76.4524 263.178 76.9505 263.015L203.847 221.882Z" fill="#F2F2F2"/>
<path d="M214.35 255.078L87.9235 296.061L77.8716 265.056L204.298 224.071L214.35 255.078Z" fill="white"/>
<path d="M192.818 237.655C193.255 237.513 193.729 237.551 194.138 237.759C194.546 237.968 194.855 238.33 194.997 238.766C195.138 239.203 195.101 239.677 194.892 240.086C194.684 240.494 194.321 240.803 193.885 240.945L96.212 272.607C95.7758 272.749 95.3012 272.711 94.8927 272.503C94.4841 272.295 94.175 271.932 94.0334 271.496C93.8918 271.06 93.9293 270.585 94.1376 270.177C94.3459 269.768 94.708 269.459 95.1442 269.318L192.818 237.655Z" fill="#9C9696"/>
<path d="M196.017 247.524C196.453 247.382 196.928 247.42 197.336 247.628C197.745 247.837 198.054 248.199 198.195 248.635C198.336 249.072 198.299 249.546 198.09 249.955C197.882 250.363 197.52 250.672 197.083 250.814L99.4103 282.476C99.1944 282.547 98.9668 282.574 98.7403 282.557C98.5139 282.539 98.2932 282.477 98.0907 282.374C97.8882 282.272 97.7079 282.13 97.5601 281.957C97.4124 281.785 97.3001 281.585 97.2296 281.369C97.1591 281.153 97.1318 280.926 97.1492 280.699C97.1667 280.473 97.2286 280.252 97.3314 280.05C97.4342 279.847 97.5759 279.667 97.7483 279.519C97.9208 279.371 98.1207 279.259 98.3365 279.189H98.3442L196.017 247.524Z" fill="#9C9696"/>
<path d="M105.181 207.641C105.181 207.641 100.719 217.099 101.433 219.955C101.851 221.691 101.662 223.518 100.897 225.132L92.6883 224.775L85.0145 217.458C85.0145 217.458 96.6138 209.427 95.8989 205.501C95.1841 201.575 105.181 207.641 105.181 207.641Z" fill="#ED9DA0"/>
<path d="M63.0645 352.55L60.2092 363.614L55.9261 360.402L52 351.479L56.9968 345.412L63.0645 352.55Z" fill="#ED9DA0"/>
<path d="M84.506 263.418C84.506 263.418 77.697 270.816 80.9106 282.237C80.9106 282.237 84.4801 307.935 73.0585 317.572C61.637 327.208 54.142 348.266 54.142 348.266L62.7083 356.118C62.7083 356.118 71.9878 335.06 81.6249 326.852C91.262 318.643 92.3327 309.363 92.3327 309.363V276.886L94.1172 263.321L84.506 263.418Z" fill="#090814"/>
<path opacity="0.1" d="M84.506 263.418C84.506 263.418 77.697 270.816 80.9106 282.237C80.9106 282.237 84.4801 307.935 73.0585 317.572C61.637 327.208 54.142 348.266 54.142 348.266L62.7083 356.118C62.7083 356.118 71.9878 335.06 81.6249 326.852C91.262 318.643 92.3327 309.363 92.3327 309.363V276.886L94.1172 263.321L84.506 263.418Z" fill="#6F6F6F"/>
<path d="M106.964 267.96C106.964 267.96 111.604 288.661 103.395 312.219C103.395 312.219 99.4692 325.425 97.6848 329.351C95.9003 333.277 94.1159 361.116 94.8296 362.187C94.8296 362.187 89.1191 366.827 84.1217 363.615C84.1217 363.615 84.4788 347.196 83.7645 345.769C83.0503 344.342 82.3366 331.85 86.6198 321.499C90.9029 311.147 87.3334 286.164 87.3334 286.164C87.3334 286.164 78.7671 273.315 85.1919 265.819L106.964 267.96Z" fill="#090814"/>
<path d="M101.612 210.142C96.0925 210.142 91.6182 205.667 91.6182 200.148C91.6182 194.629 96.0925 190.154 101.612 190.154C107.131 190.154 111.605 194.629 111.605 200.148C111.605 205.667 107.131 210.142 101.612 210.142Z" fill="#ED9DA0"/>
<path d="M83.0516 265.463C83.0516 265.463 85.9068 269.747 88.0484 267.605C89.5581 266.095 99.2234 269.375 104.8 271.442C107.134 272.305 108.751 272.958 108.751 272.958C108.751 272.958 108.905 268.012 109.358 261.747C109.879 254.559 110.793 245.627 112.32 240.479C115.175 230.842 108.037 226.916 108.037 226.916C108.037 226.916 101.969 219.778 102.325 218.706C102.68 217.635 86.2628 212.282 86.2628 212.282C84.4783 212.639 83.0504 228.7 83.0504 228.7C83.0504 228.7 86.2628 241.549 88.0472 249.401C89.8317 257.253 83.0516 265.463 83.0516 265.463Z" fill="#D8D8D8"/>
<path d="M113.747 265.819C113.747 265.819 121.599 273.671 125.525 275.813C129.451 277.954 131.593 285.092 128.38 286.52C125.168 287.949 118.029 278.668 118.029 278.668L107.679 270.102L113.747 265.819Z" fill="#ED9DA0"/>
<path d="M112.263 194.177C113.176 194.259 113.698 195.408 113.403 196.277C113.219 196.698 112.943 197.072 112.596 197.373C112.249 197.674 111.839 197.893 111.396 198.016C110.531 198.319 109.606 198.423 108.741 198.722C107.88 199.037 107.081 199.501 106.38 200.093C103.951 202.21 102.387 205.149 101.988 208.347C101.607 211.524 101.905 214.746 102.863 217.8C103.328 219.424 104.086 221.205 105.674 221.781C103.938 221.353 102.243 220.778 100.605 220.062C99.4044 219.497 98.2777 218.781 97.0645 218.244C95.2688 217.511 93.3847 217.017 91.4605 216.773C90.1073 216.563 88.6812 216.403 87.4121 216.912C86.6339 217.274 85.9178 217.757 85.2905 218.343L81.208 221.773C81.137 220.283 81.0901 218.791 81.0674 217.298C80.9695 216 81.127 214.696 81.531 213.459C82.0017 212.268 82.8995 211.298 83.499 210.165C84.9834 207.363 84.4992 203.99 84.4721 200.82C84.3566 197.525 85.0496 194.251 86.4907 191.286C88.0099 188.377 90.6045 185.941 93.768 185.07C98.0329 183.893 102.529 185.642 106.449 187.691C107.371 188.13 108.231 188.689 109.006 189.355C109.829 190.197 110.529 191.151 111.084 192.19L113.026 195.442" fill="#090814"/>
<path opacity="0.1" d="M86.9789 232.269C86.9789 232.269 93.7602 257.967 94.4721 259.752C94.9863 261.033 101.032 267.85 104.798 271.442C107.132 272.305 108.749 272.957 108.749 272.957C108.749 272.957 108.902 268.01 109.355 261.746C106.452 258.522 103.397 255.47 103.397 255.47C103.397 255.47 100.184 235.84 100.541 228.348C100.899 220.855 93.4031 219.068 93.4031 219.068C84.8373 220.134 86.9789 232.269 86.9789 232.269Z" fill="black"/>
<path d="M94.4727 217.636C94.4727 217.636 101.968 219.421 101.611 226.916C101.254 234.411 104.466 254.038 104.466 254.038C104.466 254.038 116.602 266.174 115.531 267.601C114.46 269.028 109.873 271.837 108.775 272.216C107.678 272.596 96.2571 260.105 95.5435 258.321C94.8298 256.537 88.0479 230.839 88.0479 230.839C88.0479 230.839 85.9064 218.707 94.4727 217.636Z" fill="#D8D8D8"/>
<path d="M350.352 241H327.863C325.894 241 324.298 242.596 324.298 244.565C324.298 246.534 325.894 248.13 327.863 248.13H350.352C352.321 248.13 353.917 246.534 353.917 244.565C353.917 242.596 352.321 241 350.352 241Z" fill="#6B2340"/>
<path d="M452.92 241H449.629C447.661 241 446.064 242.596 446.064 244.565C446.064 246.534 447.661 248.13 449.629 248.13H452.92C454.889 248.13 456.485 246.534 456.485 244.565C456.485 242.596 454.889 241 452.92 241Z" fill="#6B2340"/>
<path d="M473.764 241H470.473C468.504 241 466.908 242.596 466.908 244.565C466.908 246.534 468.504 248.13 470.473 248.13H473.764C475.733 248.13 477.329 246.534 477.329 244.565C477.329 242.596 475.733 241 473.764 241Z" fill="#6B2340"/>
<path d="M431.529 241H367.903C365.934 241 364.338 242.596 364.338 244.565C364.338 246.534 365.934 248.13 367.903 248.13H431.529C433.498 248.13 435.094 246.534 435.094 244.565C435.094 242.596 433.498 241 431.529 241Z" fill="#6B2340"/>
<path d="M313.055 287.074H290.566C288.597 287.074 287.001 288.67 287.001 290.639C287.001 292.608 288.597 294.204 290.566 294.204H313.055C315.024 294.204 316.62 292.608 316.62 290.639C316.62 288.67 315.024 287.074 313.055 287.074Z" fill="#6B2340"/>
<path d="M415.623 287.074H412.332C410.363 287.074 408.767 288.67 408.767 290.639C408.767 292.608 410.363 294.204 412.332 294.204H415.623C417.591 294.204 419.188 292.608 419.188 290.639C419.188 288.67 417.591 287.074 415.623 287.074Z" fill="#6B2340"/>
<path d="M436.466 287.074H433.175C431.206 287.074 429.61 288.67 429.61 290.639C429.61 292.608 431.206 294.204 433.175 294.204H436.466C438.435 294.204 440.031 292.608 440.031 290.639C440.031 288.67 438.435 287.074 436.466 287.074Z" fill="#6B2340"/>
<path d="M394.232 287.074H330.606C328.637 287.074 327.041 288.67 327.041 290.639C327.041 292.608 328.637 294.204 330.606 294.204H394.232C396.201 294.204 397.797 292.608 397.797 290.639C397.797 288.67 396.201 287.074 394.232 287.074Z" fill="#6B2340"/>
<path d="M435.37 256.906H412.881C410.913 256.906 409.316 258.502 409.316 260.471C409.316 262.44 410.913 264.036 412.881 264.036H435.37C437.339 264.036 438.935 262.44 438.935 260.471C438.935 258.502 437.339 256.906 435.37 256.906Z" fill="#6B2340"/>
<path d="M313.055 256.906H290.566C288.597 256.906 287.001 258.502 287.001 260.471C287.001 262.44 288.597 264.036 290.566 264.036H313.055C315.024 264.036 316.62 262.44 316.62 260.471C316.62 258.502 315.024 256.906 313.055 256.906Z" fill="#6B2340"/>
<path d="M293.857 241H290.566C288.597 241 287.001 242.596 287.001 244.565C287.001 246.534 288.597 248.13 290.566 248.13H293.857C295.826 248.13 297.422 246.534 297.422 244.565C297.422 242.596 295.826 241 293.857 241Z" fill="#6B2340"/>
<path d="M293.856 272.264H290.565C288.596 272.264 287 273.86 287 275.829C287 277.798 288.596 279.394 290.565 279.394H293.856C295.825 279.394 297.421 277.798 297.421 275.829C297.421 273.86 295.825 272.264 293.856 272.264Z" fill="#6B2340"/>
<path d="M395.877 256.906H332.251C330.282 256.906 328.686 258.502 328.686 260.471C328.686 262.44 330.282 264.036 332.251 264.036H395.877C397.845 264.036 399.442 262.44 399.442 260.471C399.442 258.502 397.845 256.906 395.877 256.906Z" fill="#6B2340"/>
<path d="M373.938 272.264H351.449C349.48 272.264 347.884 273.86 347.884 275.829C347.884 277.798 349.48 279.394 351.449 279.394H373.938C375.907 279.394 377.503 277.798 377.503 275.829C377.503 273.86 375.907 272.264 373.938 272.264Z" fill="#6B2340"/>
<path d="M333.897 272.264H311.408C309.439 272.264 307.843 273.86 307.843 275.829C307.843 277.798 309.439 279.394 311.408 279.394H333.897C335.866 279.394 337.462 277.798 337.462 275.829C337.462 273.86 335.866 272.264 333.897 272.264Z" fill="#6B2340"/>
<path d="M312.531 241H309.24C307.271 241 305.675 242.596 305.675 244.565C305.675 246.534 307.271 248.13 309.24 248.13H312.531C314.5 248.13 316.096 246.534 316.096 244.565C316.096 242.596 314.5 241 312.531 241Z" fill="#6B2340"/>
<path d="M475.409 272.264H472.118C470.149 272.264 468.553 273.86 468.553 275.829C468.553 277.798 470.149 279.394 472.118 279.394H475.409C477.378 279.394 478.974 277.798 478.974 275.829C478.974 273.86 477.378 272.264 475.409 272.264Z" fill="#6B2340"/>
<path d="M454.566 272.264H390.94C388.971 272.264 387.375 273.86 387.375 275.829C387.375 277.798 388.971 279.394 390.94 279.394H454.566C456.535 279.394 458.131 277.798 458.131 275.829C458.131 273.86 456.535 272.264 454.566 272.264Z" fill="#6B2340"/>
<defs>
<filter id="filter0_d_1612_1943" x="235.231" y="25.2339" width="292.737" height="209.537" filterUnits="userSpaceOnUse" color-interpolation-filters="sRGB">
<feFlood flood-opacity="0" result="BackgroundImageFix"/>
<feColorMatrix in="SourceAlpha" type="matrix" values="0 0 0 0 0 0 0 0 0 0 0 0 0 0 0 0 0 0 127 0" result="hardAlpha"/>
<feOffset dx="11" dy="11"/>
<feGaussianBlur stdDeviation="1.1"/>
<feComposite in2="hardAlpha" operator="out"/>
<feColorMatrix type="matrix" values="0 0 0 0 0 0 0 0 0 0 0 0 0 0 0 0 0 0 0.17 0"/>
<feBlend mode="normal" in2="BackgroundImageFix" result="effect1_dropShadow_1612_1943"/>
<feBlend mode="normal" in="SourceGraphic" in2="effect1_dropShadow_1612_1943" result="shape"/>
</filter>
</defs>
</svg>
