<svg width="731" height="800" viewBox="0 0 731 800" fill="none" xmlns="http://www.w3.org/2000/svg">
<g clip-path="url(#clip0_1588_58)">
<path d="M432.54 773.66C432.54 773.842 432.575 774.023 432.645 774.192C432.714 774.36 432.816 774.514 432.945 774.643C433.074 774.772 433.228 774.874 433.396 774.943C433.565 775.013 433.746 775.049 433.928 775.048H729.372C729.74 775.048 730.093 774.902 730.354 774.641C730.614 774.381 730.76 774.028 730.76 773.66C730.76 773.292 730.614 772.939 730.354 772.679C730.093 772.418 729.74 772.272 729.372 772.272H433.928C433.746 772.271 433.565 772.307 433.396 772.377C433.228 772.446 433.074 772.548 432.945 772.677C432.816 772.806 432.714 772.96 432.645 773.128C432.575 773.297 432.54 773.478 432.54 773.66Z" fill="#E6E6E6"/>
<path d="M75.6758 0H364.037C382.204 0 399.627 7.21694 412.474 20.0632C425.32 32.9094 432.537 50.3327 432.537 68.5V706.546C432.537 724.713 425.32 742.137 412.474 754.983C399.627 767.829 382.204 775.046 364.037 775.046H75.6758C57.5085 775.046 40.0852 767.829 27.239 754.983C14.3927 742.137 7.17578 724.713 7.17578 706.546L7.17578 68.5C7.17578 50.3327 14.3927 32.9094 27.239 20.0632C40.0852 7.21694 57.5085 0 75.6758 0Z" fill="#090814"/>
<path d="M425.364 76.634V698.421C425.342 716.835 418.018 734.488 404.997 747.509C391.977 760.529 374.323 767.854 355.91 767.875H83.8096C65.3948 767.855 47.7398 760.531 34.718 747.511C21.6962 734.49 14.371 716.836 14.3496 698.421V76.634C14.371 58.2202 21.6954 40.5667 34.7159 27.5462C47.7364 14.5257 65.3899 7.2014 83.8036 7.17996H119.39V19.471C119.39 25.0352 121.6 30.3715 125.535 34.3061C129.469 38.2407 134.805 40.4514 140.37 40.452C186.437 54.367 240.51 52.195 299.347 40.452C304.911 40.4517 310.247 38.2413 314.182 34.3068C318.116 30.3724 320.327 25.0362 320.328 19.472V7.17896H355.91C374.323 7.20039 391.977 14.5247 404.997 27.5452C418.018 40.5657 425.342 58.2192 425.364 76.633V76.634Z" fill="white"/>
<path d="M5.21899 157.228C3.83532 157.226 2.50874 156.676 1.53033 155.698C0.551926 154.719 0.001588 153.393 0 152.009V141.57C0 140.186 0.549843 138.858 1.52859 137.88C2.50735 136.901 3.83483 136.351 5.21899 136.351C6.60316 136.351 7.93061 136.901 8.90936 137.88C9.88812 138.858 10.438 140.186 10.438 141.57V152.008C10.4364 153.392 9.88603 154.718 8.90762 155.697C7.92921 156.675 6.60267 157.225 5.21899 157.227V157.228Z" fill="#090814"/>
<path d="M5.21899 210.752C3.83532 210.75 2.50874 210.2 1.53033 209.222C0.551926 208.243 0.001588 206.917 0 205.533V176.799C0 175.415 0.549843 174.087 1.52859 173.109C2.50735 172.13 3.83483 171.58 5.21899 171.58C6.60316 171.58 7.93061 172.13 8.90936 173.109C9.88812 174.087 10.438 175.415 10.438 176.799V205.533C10.4364 206.917 9.88603 208.243 8.90762 209.222C7.92921 210.2 6.60267 210.75 5.21899 210.752Z" fill="#090814"/>
<path d="M5.21909 253.782C3.83506 253.781 2.5079 253.231 1.52887 252.253C0.549842 251.275 -0.00107572 249.948 -0.00292969 248.564V219.83C-0.00292969 218.446 0.546943 217.118 1.5257 216.14C2.50445 215.161 3.8319 214.611 5.21606 214.611C6.60023 214.611 7.92771 215.161 8.90646 216.14C9.88522 217.118 10.4351 218.446 10.4351 219.83V248.564C10.4332 249.947 9.88316 251.273 8.90543 252.251C7.92769 253.229 6.60207 253.78 5.21909 253.782Z" fill="#090814"/>
<path d="M103.844 37.934H68.6138C66.8836 37.934 65.2242 37.2466 64.0007 36.0231C62.7772 34.7997 62.0898 33.1403 62.0898 31.41C62.0898 29.6797 62.7772 28.0203 64.0007 26.7968C65.2242 25.5733 66.8836 24.886 68.6138 24.886H103.844C105.574 24.886 107.234 25.5733 108.457 26.7968C109.68 28.0203 110.368 29.6797 110.368 31.41C110.368 33.1403 109.68 34.7997 108.457 36.0231C107.234 37.2466 105.574 37.934 103.844 37.934Z" fill="#E6E6E6"/>
<path d="M424.5 76.351V408.474C424.5 446.774 13.4902 446.774 13.4902 408.474V76.351C13.5117 57.9365 20.8366 40.2825 33.8579 27.2618C46.8793 14.2412 64.5338 6.91735 82.9482 6.89697H118.53V19.188C118.53 24.7522 120.741 30.0885 124.675 34.0231C128.61 37.9577 133.946 40.1684 139.51 40.169C183.62 54.022 238.075 51.742 298.487 40.169C304.051 40.1687 309.388 37.9583 313.322 34.0238C317.257 30.0894 319.468 24.7532 319.468 19.189V6.89697H355.048C373.462 6.91841 391.115 14.2428 404.136 27.2633C417.156 40.2838 424.481 57.9372 424.502 76.351H424.5Z" fill="#F2F2F2"/>
<path d="M14.0811 401.974V408.498C14.0811 446.798 425.092 446.798 425.092 408.498V401.974C425.091 440.27 14.0811 440.27 14.0811 401.974Z" fill="#D6D6E3"/>
<path opacity="0.097" d="M218.995 334.683C276.645 334.683 323.379 287.949 323.379 230.299C323.379 172.649 276.645 125.915 218.995 125.915C161.346 125.915 114.611 172.649 114.611 230.299C114.611 287.949 161.346 334.683 218.995 334.683Z" fill="#871F34"/>
<path opacity="0.2" d="M218.996 303.809C259.595 303.809 292.506 270.897 292.506 230.299C292.506 189.701 259.595 156.789 218.996 156.789C178.398 156.789 145.486 189.701 145.486 230.299C145.486 270.897 178.398 303.809 218.996 303.809Z" fill="#871F34"/>
<path d="M218.995 278.815C245.789 278.815 267.511 257.094 267.511 230.299C267.511 203.504 245.789 181.783 218.995 181.783C192.2 181.783 170.479 203.504 170.479 230.299C170.479 257.094 192.2 278.815 218.995 278.815Z" fill="#871F34"/>
<path d="M227.816 219.835C227.816 218.346 227.44 216.882 226.722 215.578C226.003 214.274 224.967 213.173 223.709 212.378C222.451 211.582 221.011 211.118 219.526 211.028C218.04 210.939 216.555 211.227 215.211 211.865C213.866 212.504 212.705 213.473 211.835 214.681C210.966 215.889 210.416 217.298 210.238 218.775C210.059 220.253 210.257 221.752 210.814 223.133C211.371 224.513 212.268 225.731 213.422 226.671L210.173 249.412H227.815L224.566 226.671C225.582 225.845 226.401 224.803 226.963 223.62C227.526 222.438 227.817 221.144 227.816 219.835Z" fill="white"/>
<path d="M662.499 175.895C662.499 175.895 641.457 157.03 613.16 192.583C584.863 228.136 540.602 245.55 530.446 259.336C530.446 259.336 572.53 241.922 587.046 234.666C601.562 227.41 600.832 228.866 600.832 228.866C600.832 228.866 581.234 242.648 577.606 256.436C573.978 270.224 576.88 281.836 570.35 295.617C563.82 309.398 695.15 305.05 695.15 305.05C695.15 305.05 708.21 282.557 704.582 259.339C700.954 236.121 703.131 178.797 662.499 175.895Z" fill="#090814"/>
<path d="M622.7 231.826C622.7 231.826 627.275 263.855 607.666 271.045C588.057 278.235 595.242 288.04 595.242 288.04L624.656 302.42L656.031 292.62L666.489 276.932C666.489 276.932 649.494 273.01 654.07 261.245C658.646 249.48 659.953 245.558 659.953 245.558L622.7 231.826Z" fill="#ED9DA0"/>
<path d="M705.059 323.337C705.059 323.337 700.483 383.472 701.791 386.087C703.099 388.702 701.791 479.558 701.791 479.558C701.791 479.558 703.047 512.218 695.827 522.344C695.2 523.233 691.214 524.521 690.027 524.785C678.261 527.4 690.027 476.285 690.027 476.285L678.261 400.462L679.568 325.293L705.059 323.337Z" fill="#ED9DA0"/>
<path d="M577.599 504.396C577.599 504.396 556.029 586.102 556.682 625.974C557.335 665.846 565.833 721.406 565.833 721.406C565.833 721.406 567.14 745.591 565.179 748.206C563.218 750.821 574.979 761.933 574.979 761.933L587.398 754.743L591.974 749.514V744.942C591.974 744.942 584.784 722.718 590.667 705.07C596.55 687.422 599.818 642.97 593.935 629.247L634.466 508.971L577.599 504.396Z" fill="#ED9DA0"/>
<path d="M576.292 751.477C576.292 751.477 568.448 741.677 563.219 744.941C557.99 748.205 549.492 770.433 549.492 770.433C549.492 770.433 520.078 798.54 540.992 799.847C561.906 801.154 571.06 793.964 573.674 788.735C576.288 783.506 600.474 769.779 600.474 769.779C600.474 769.779 597.859 744.94 593.938 744.287C590.017 743.634 584.138 754.087 584.138 754.087L576.292 751.477Z" fill="#090814"/>
<path d="M648.845 509.625V590.675C648.921 600.51 649.576 610.331 650.806 620.089C652.767 634.469 639.694 741.667 639.694 741.667L641.003 760.625L657.344 759.318L659.303 742.975L682.834 671.075C682.834 671.075 690.678 627.281 686.756 610.94C682.834 594.599 701.403 490.486 701.403 490.486L648.845 509.625Z" fill="#ED9DA0"/>
<path d="M635.773 756.049L640.614 754.997C640.614 754.997 644.27 746.897 648.846 748.859C652.066 750.344 655.117 752.172 657.946 754.311L659.96 758.011C659.96 758.011 664.536 767.811 670.418 774.352C676.3 780.893 682.837 795.269 673.033 796.576C663.229 797.883 650.155 798.537 646.233 795.269C642.311 792.001 644.926 786.769 641.004 785.469C637.082 784.169 633.814 780.24 634.468 778.933C635.122 777.626 635.773 756.049 635.773 756.049Z" fill="#090814"/>
<path d="M648.844 257.755C664.888 257.755 677.894 244.749 677.894 228.705C677.894 212.661 664.888 199.655 648.844 199.655C632.8 199.655 619.794 212.661 619.794 228.705C619.794 244.749 632.8 257.755 648.844 257.755Z" fill="#ED9DA0"/>
<path d="M593.943 276.274L602.577 273.26C602.577 273.26 599.177 278.889 617.477 282.16C635.777 285.431 654.733 286.585 663.231 275.875C663.231 275.875 666.5 274.316 671.076 278.891C675.652 283.466 678.266 282.159 678.266 282.159L674.998 299.154L668.462 330.529L659.962 354.06L635.777 348.831L609.631 329.875L599.831 304.383V280.85L593.943 276.274Z" fill="#AEAEB9"/>
<path d="M673.684 285.425L680.22 280.849C680.22 280.849 702.444 284.771 703.751 295.229L686.756 327.911C690.222 337.005 689.987 347.095 686.102 356.018C679.566 371.052 680.219 374.318 680.219 374.318L675.644 393.927L592.631 400.463C592.631 400.463 589.363 392.619 588.056 391.312C586.749 390.005 586.749 385.429 588.056 385.429C589.363 385.429 588.056 383.468 586.749 381.507C585.442 379.546 584.788 378.892 586.749 376.278C588.71 373.664 583.481 350.139 583.481 350.139V324.639L561.257 295.225C561.257 295.225 569.101 283.459 573.023 282.152C576.945 280.845 595.601 275.689 595.601 275.689L599.822 281.905L605.701 329.219L614.201 357.979L649.979 351.9L663.879 328.565L673.03 301.112L673.684 285.425Z" fill="#AEAEB9"/>
<path d="M698.522 291.304L703.751 295.226C703.751 295.226 708.328 331.826 707.02 334.445C705.712 337.064 682.835 339.674 682.181 338.367C681.527 337.06 698.522 291.304 698.522 291.304Z" fill="#AEAEB9"/>
<path d="M590.672 273.006L597.209 316.147C597.209 316.147 591.326 380.204 592.633 393.277L593.94 397.199C593.94 397.199 591.325 395.892 590.672 398.506C590.019 401.12 590.672 409.618 590.672 409.618C590.672 409.618 586.75 413.54 585.443 435.11C584.136 456.68 565.692 518.123 571.575 520.084C577.458 522.045 620.954 540.637 639.909 538.676C658.864 536.715 711.721 525.967 711.067 520.084C710.413 514.201 687.411 400.467 687.411 400.467C687.411 400.467 681.528 390.667 681.528 389.355C681.528 388.043 689.372 382.819 687.411 377.589C685.45 372.359 674.992 317.457 674.992 317.457L682.182 278.238L672.382 275.623L665.192 313.534C665.192 313.534 637.085 327.261 607.671 314.841L601.135 270.393L590.672 273.006Z" fill="black"/>
<path d="M622.119 207.857C622.119 207.857 670.489 241.193 683.562 226.157C696.635 211.121 660.684 198.05 660.684 198.05L630.616 194.782L622.119 207.857Z" fill="#090814"/>
<path d="M551.92 553.477C556.294 556.733 561.704 558.282 567.138 557.834C572.571 557.386 577.655 554.972 581.436 551.043C585.217 547.115 587.435 541.943 587.675 536.496C587.915 531.05 586.161 525.702 582.74 521.457C579.32 517.211 574.468 514.359 569.095 513.434C563.722 512.51 558.196 513.576 553.554 516.435C548.911 519.293 545.47 523.746 543.876 528.96C542.282 534.174 542.644 539.79 544.894 544.756L486.294 593.545L478.494 584.285L474.989 586.629L471.089 581.999L474.294 579.299L470.394 574.669L465.408 578.869L467.808 581.718L462.466 586.218L460.066 583.369L452.231 589.969L455.831 594.243L458.68 591.843L462.58 596.473L459.018 599.473L466.218 608.02L457.67 615.22L466.37 625.548L551.92 553.477ZM566.551 520.749C569.472 520.999 572.253 522.109 574.542 523.939C576.832 525.769 578.527 528.237 579.414 531.031C580.301 533.824 580.339 536.818 579.524 539.634C578.709 542.449 577.078 544.96 574.836 546.848C572.594 548.736 569.843 549.918 566.93 550.242C564.017 550.567 561.073 550.02 558.471 548.671C555.869 547.323 553.725 545.233 552.31 542.666C550.896 540.098 550.274 537.169 550.524 534.249C550.86 530.334 552.737 526.712 555.742 524.18C558.748 521.649 562.636 520.414 566.551 520.749Z" fill="white"/>
<path d="M556.682 331.18C556.682 331.18 561.258 391.315 559.95 393.93C558.642 396.545 559.95 487.401 559.95 487.401C559.95 487.401 550.799 536.424 562.565 539.039C574.331 541.654 571.716 484.133 571.716 484.133L583.482 408.31L582.175 333.141L556.682 331.18Z" fill="#ED9DA0"/>
<path d="M566.485 293.269L561.256 295.23C561.256 295.23 551.456 336.41 554.066 336.41C556.676 336.41 588.056 340.332 588.056 339.025C588.056 337.718 582.173 305.689 582.173 305.689L566.485 293.269Z" fill="#AEAEB9"/>
<path d="M219.925 646.148C217.511 646.14 215.107 645.829 212.77 645.222L212.308 645.094L211.88 644.879C196.433 637.117 183.4 626.866 173.145 614.408C164.655 604.035 158.037 592.258 153.586 579.606C148.264 564.459 145.704 548.475 146.027 532.42C146.034 532.083 146.039 531.822 146.039 531.643C146.039 523.839 150.363 516.99 157.053 514.196C162.174 512.058 208.668 492.921 212.027 491.539C218.354 488.362 225.103 491.014 226.183 491.477C228.605 492.47 271.586 510.086 280.874 514.518C290.446 519.086 293 527.292 293 531.419C293 550.11 289.77 567.578 283.399 583.337C278.254 596.094 270.961 607.871 261.839 618.155C244.24 638.002 226.636 645.037 226.466 645.099C224.362 645.825 222.148 646.179 219.923 646.146L219.925 646.148ZM215.785 635.872C217.311 636.214 220.825 636.729 223.115 635.892C226.025 634.829 240.759 627.172 254.528 611.645C273.552 590.19 283.203 563.223 283.219 531.488C283.185 530.845 282.729 526.26 276.67 523.369C267.562 519.022 222.887 500.717 222.437 500.533L222.313 500.48C221.377 500.087 218.398 499.259 216.344 500.337L215.933 500.529C215.435 500.734 166.081 521.047 160.818 523.245C157.136 524.782 155.824 528.59 155.824 531.642C155.824 531.865 155.818 532.19 155.81 532.609C155.389 554.323 160.403 607.754 215.785 635.871V635.872Z" fill="#871F34"/>
<path d="M213.955 495.862C213.955 495.862 164.153 516.359 158.817 518.588C153.48 520.816 150.813 526.162 150.813 531.51C150.813 536.857 146.811 606.629 213.955 640.364C213.955 640.364 220.049 642.053 224.672 640.364C229.295 638.674 287.991 610.153 287.991 531.286C287.991 531.286 287.991 523.266 278.653 518.81C269.315 514.354 224.168 495.862 224.168 495.862C224.168 495.862 218.624 493.41 213.955 495.862Z" fill="#871F34"/>
<path opacity="0.1" d="M219.41 512.036V621.379C219.41 621.379 169.164 597.142 169.608 533.423L219.41 512.036Z" fill="black"/>
<path d="M212.933 594.343C211.378 594.346 209.864 593.842 208.619 592.907L208.542 592.849L192.295 580.384C191.518 579.816 190.862 579.097 190.366 578.271C189.87 577.445 189.543 576.528 189.406 575.573C189.269 574.619 189.323 573.647 189.566 572.714C189.809 571.781 190.236 570.906 190.821 570.141C191.406 569.375 192.138 568.735 192.973 568.257C193.809 567.779 194.732 567.473 195.687 567.358C196.642 567.242 197.611 567.319 198.536 567.584C199.461 567.849 200.324 568.297 201.074 568.901L211.598 576.987L236.467 544.487C237.632 542.965 239.353 541.969 241.25 541.718C243.148 541.467 245.068 541.982 246.587 543.148L246.432 543.359L246.591 543.152C248.108 544.32 249.101 546.044 249.351 547.946C249.602 549.847 249.09 551.77 247.927 553.293L218.675 591.521C217.999 592.402 217.129 593.115 216.133 593.604C215.137 594.094 214.042 594.347 212.933 594.344L212.933 594.343Z" fill="white"/>
<path d="M229.321 679.409H206.217C202.389 679.409 199.286 682.518 199.286 686.354C199.286 690.19 202.389 693.3 206.217 693.3H229.321C233.149 693.3 236.252 690.19 236.252 686.354C236.252 682.518 233.149 679.409 229.321 679.409Z" fill="#E6E6E6"/>
<path d="M231.921 695.036C236.546 695.036 240.296 691.279 240.296 686.644C240.296 682.009 236.546 678.251 231.921 678.251C227.296 678.251 223.546 682.009 223.546 686.644C223.546 691.279 227.296 695.036 231.921 695.036Z" fill="#B88C26"/>
</g>
<defs>
<clipPath id="clip0_1588_58">
<rect width="730.759" height="800" fill="white"/>
</clipPath>
</defs>
</svg>
