<svg width="119" height="200" viewBox="0 0 119 200" fill="none" xmlns="http://www.w3.org/2000/svg">
<path d="M77.2423 104.651C74.0029 108.607 71.8141 113.396 70.898 118.533L58.1827 126.052V90.5148L58.4236 90.8816L78.7012 75.2362C81.2576 75.6594 91.0953 76.8444 100.116 71.7516C110.449 65.8405 118.052 45.5395 118.052 45.5395C118.052 45.5395 93.2502 42.591 84.8447 53.5527C80.2347 59.2436 77.7802 66.5279 77.9516 74.0088L58.1827 89.2733V63.033C61.883 61.216 65.1538 58.5544 67.758 55.241C70.3623 51.9275 72.2349 48.0451 73.2403 43.8748C76.8407 29.1041 57.6339 0 57.6339 0C57.6339 0 37.624 29.9506 41.5724 45.1445C44.9587 58.0107 54.0736 62.0737 56.7907 63.033V119.957L42.5629 107.444C42.8841 104.453 43.1384 95.0716 35.2148 85.6617C25.6046 74.2769 0 75.1233 0 75.1233C0 75.1233 10.8013 97.8931 20.0768 105.497C28.1076 112.128 39.2167 109.419 41.8802 108.629L56.8977 121.82V139.116H34.5321L43.6336 199.073H70.9381L80.0396 139.116H58.1827V127.674L72.1561 119.421C75.5558 120.409 85.0588 122.469 94.0532 117.728C105.256 111.846 114.451 99.1487 114.451 99.1487C114.451 99.1487 87.6421 91.9961 77.2423 104.651Z" fill="#918989" fill-opacity="0.25"/>
</svg>
