<svg width="261" height="343" viewBox="0 0 261 343" fill="none" xmlns="http://www.w3.org/2000/svg">
<g clip-path="url(#clip0_1588_59)">
<path d="M169.214 80.6499H167.348V29.5651C167.348 21.7239 164.233 14.2039 158.689 8.65938C153.144 3.11487 145.625 -8.24358e-10 137.784 0H29.5634C21.7228 -8.24376e-10 14.2033 3.11487 8.65909 8.65938C3.11488 14.2039 0.000113693 21.7239 0 29.5651V309.816C0.000113693 317.657 3.11488 325.177 8.65909 330.722C14.2033 336.266 21.7228 339.381 29.5634 339.381H137.785C145.625 339.381 153.145 336.266 158.689 330.722C164.233 325.177 167.348 317.657 167.348 309.816V117.012H169.214V80.6499Z" fill="#090814"/>
<path d="M138.981 7.69238H124.855C125.505 9.28519 125.753 11.0134 125.577 12.7246C125.402 14.4359 124.808 16.0777 123.849 17.5055C122.889 18.9333 121.594 20.1032 120.076 20.9122C118.557 21.7211 116.864 22.1443 115.144 22.1444H53.142C51.4218 22.1443 49.7281 21.7212 48.21 20.9123C46.6918 20.1034 45.3959 18.9335 44.4364 17.5057C43.477 16.0779 42.8833 14.436 42.7078 12.7247C42.5323 11.0134 42.7804 9.28522 43.4301 7.69238H30.2365C24.3812 7.69238 18.7658 10.0185 14.6255 14.1591C10.4852 18.2997 8.15918 23.9155 8.15918 29.7712V309.613C8.15918 315.469 10.4852 321.085 14.6255 325.225C18.7658 329.366 24.3812 331.692 30.2365 331.692H138.977C144.832 331.692 150.448 329.366 154.588 325.225C158.728 321.085 161.054 315.469 161.054 309.613V29.7721C161.054 23.9171 158.729 18.3018 154.589 14.1613C150.45 10.0209 144.835 7.69427 138.981 7.69324L138.981 7.69238Z" fill="white"/>
<path d="M84.6074 213.435C115.687 213.435 140.882 188.238 140.882 157.157C140.882 126.075 115.687 100.878 84.6074 100.878C53.5279 100.878 28.333 126.075 28.333 157.157C28.333 188.238 53.5279 213.435 84.6074 213.435Z" fill="#E6E6E6"/>
<path d="M135.629 51.4338H33.3688C30.5278 51.4338 28.2246 53.7371 28.2246 56.5784V65.5849C28.2246 68.4261 30.5278 70.7295 33.3688 70.7295H135.629C138.47 70.7295 140.773 68.4261 140.773 65.5849V56.5784C140.773 53.7371 138.47 51.4338 135.629 51.4338Z" fill="#E6E6E6"/>
<path d="M39.4793 272.929C45.6951 272.929 50.734 267.89 50.734 261.674C50.734 255.457 45.6951 250.418 39.4793 250.418C33.2635 250.418 28.2246 255.457 28.2246 261.674C28.2246 267.89 33.2635 272.929 39.4793 272.929Z" fill="#E6E6E6"/>
<path d="M129.518 272.929C135.734 272.929 140.773 267.89 140.773 261.674C140.773 255.457 135.734 250.418 129.518 250.418C123.303 250.418 118.264 255.457 118.264 261.674C118.264 267.89 123.303 272.929 129.518 272.929Z" fill="#E6E6E6"/>
<path d="M69.6258 272.929C75.8416 272.929 80.8805 267.89 80.8805 261.674C80.8805 255.457 75.8416 250.418 69.6258 250.418C63.41 250.418 58.3711 255.457 58.3711 261.674C58.3711 267.89 63.41 272.929 69.6258 272.929Z" fill="#E6E6E6"/>
<path d="M99.3719 272.929C105.588 272.929 110.627 267.89 110.627 261.674C110.627 255.457 105.588 250.418 99.3719 250.418C93.1561 250.418 88.1172 255.457 88.1172 261.674C88.1172 267.89 93.1561 272.929 99.3719 272.929Z" fill="#E6E6E6"/>
<path d="M106.4 179.053V171.107C106.422 167.678 105.676 164.287 104.219 161.182C102.761 158.078 100.628 155.339 97.9749 153.166C93.9393 149.912 88.0946 147.479 79.7211 148.021L82.9109 135.261L55.3623 154.111L82.3309 172.961L79.5762 160.926C79.5762 160.926 96.3956 157.738 106.4 179.053Z" fill="#871F34"/>
<path d="M242.644 155.335H230.446L229.018 145.926L238.187 144.707L242.644 155.335Z" fill="#9F616A"/>
<path d="M238.052 144.941L229.262 146.109L230.629 155.12H242.321L238.052 144.941ZM238.321 144.473L242.966 155.549H230.261L228.772 145.742L238.321 144.473Z" fill="#707070"/>
<path d="M199.858 238.18C200.364 237.876 200.798 237.464 201.127 236.973C201.457 236.483 201.676 235.926 201.767 235.342C201.858 234.759 201.821 234.162 201.657 233.594C201.492 233.026 201.206 232.502 200.817 232.057L207.933 219.581L200.484 220.063L194.869 231.837C194.164 232.54 193.743 233.477 193.683 234.47C193.623 235.463 193.93 236.444 194.545 237.226C195.16 238.008 196.041 238.537 197.02 238.713C197.999 238.89 199.008 238.701 199.858 238.182L199.858 238.18Z" fill="#9F616A"/>
<path d="M255.182 324.917H248.604L247.38 304.231H254.655L255.182 324.917Z" fill="#9F616A"/>
<path d="M220.411 324.805L213.616 324.398V304.231H220.889L220.411 324.805Z" fill="#9F616A"/>
<path d="M208.217 220.116C208.217 220.116 206.862 239.42 209.531 249.14C212.201 258.86 212.678 317.655 212.678 317.655H221.627L229.381 237.627L247.263 317.939L255.786 317.353L251.113 222.716L208.217 220.116Z" fill="#090814"/>
<path d="M247.413 155.043L240.572 150.05L229.109 152.547L226.006 159.921L220.66 162.572C218.902 163.443 217.381 164.729 216.23 166.318C215.078 167.907 214.33 169.752 214.048 171.694L206.41 224.442L251.11 222.714L256.522 160.59C256.579 159.941 256.505 159.287 256.304 158.667C256.103 158.048 255.781 157.475 255.355 156.982C254.929 156.489 254.408 156.087 253.824 155.799C253.24 155.511 252.604 155.343 251.953 155.305L247.413 155.043Z" fill="#E4E4E4"/>
<path d="M217.831 166.692L213.703 172.258L195.721 227.108L204.15 230.483L217.647 204.924L217.831 166.692Z" fill="#E4E4E4"/>
<path d="M232.612 148.031C240.168 148.031 246.294 141.905 246.294 134.349C246.294 126.792 240.168 120.666 232.612 120.666C225.056 120.666 218.931 126.792 218.931 134.349C218.931 141.905 225.056 148.031 232.612 148.031Z" fill="#090814"/>
<path d="M232.798 148.651C238.312 148.651 242.782 144.181 242.782 138.667C242.782 133.152 238.312 128.682 232.798 128.682C227.284 128.682 222.813 133.152 222.813 138.667C222.813 144.181 227.284 148.651 232.798 148.651Z" fill="#9F616A"/>
<path d="M240.377 137.372C234.02 135.078 231.868 133.67 224.847 137.372L222.257 127.017H242.962L240.377 137.372Z" fill="#090814"/>
<path d="M231.503 128.497C235.791 128.497 239.268 125.02 239.268 120.731C239.268 116.442 235.791 112.965 231.503 112.965C227.214 112.965 223.737 116.442 223.737 120.731C223.737 125.02 227.214 128.497 231.503 128.497Z" fill="#090814"/>
<path d="M222.258 118.882C222.259 116.888 223.028 114.97 224.405 113.528C225.782 112.085 227.662 111.228 229.654 111.135C229.53 111.129 229.409 111.116 229.284 111.116C227.224 111.116 225.249 111.934 223.793 113.39C222.337 114.847 221.519 116.822 221.519 118.881C221.519 120.941 222.337 122.916 223.793 124.373C225.249 125.829 227.224 126.647 229.284 126.647C229.409 126.647 229.53 126.634 229.654 126.628C227.662 126.535 225.782 125.678 224.405 124.236C223.028 122.793 222.259 120.876 222.258 118.882Z" fill="#090814"/>
<path opacity="0.1" d="M250.751 169.851L247.964 197.622L238.127 217.012L250.751 169.851Z" fill="black"/>
<path d="M213.746 320.431L210.925 330.27L208.724 335.626C208.724 335.626 206.083 340.193 213.815 341.079C221.547 341.965 219.443 335.373 219.443 335.373L220.095 329.689L220.719 321.483L213.746 320.431Z" fill="#090814"/>
<path d="M255.31 321.369L256.589 331.975L258.343 337.812C258.343 337.812 260.638 342.866 252.451 343C244.264 343.133 247.144 336.445 247.144 336.445L248.821 330.663L248.109 321.955L255.31 321.369Z" fill="#090814"/>
<path d="M202.08 318.953C233.16 318.953 258.354 293.756 258.354 262.674C258.354 231.593 233.16 206.396 202.08 206.396C171.001 206.396 145.806 231.593 145.806 262.674C145.806 293.756 171.001 318.953 202.08 318.953Z" fill="#871F34"/>
<path opacity="0.2" d="M199.418 282.592C196.84 285.17 193.343 286.619 189.698 286.619C186.052 286.619 182.555 285.17 179.977 282.592C177.762 280.376 176.37 277.469 176.032 274.354C175.695 271.238 176.431 268.101 178.12 265.461L175.096 268.548C172.518 271.126 171.069 274.622 171.069 278.269C171.069 281.915 172.518 285.411 175.096 287.989C177.673 290.568 181.17 292.016 184.816 292.016C188.462 292.016 191.958 290.568 194.536 287.989L201.238 281.03L201.34 280.598L199.418 282.592Z" fill="black"/>
<path opacity="0.2" d="M205.802 239.597C208.815 237.544 212.521 236.773 216.102 237.453C219.684 238.132 222.85 240.207 224.902 243.22C226.666 245.811 227.491 248.926 227.243 252.05C226.994 255.174 225.686 258.119 223.535 260.398L227.081 257.93C230.094 255.877 232.169 252.712 232.848 249.129C233.528 245.547 232.757 241.842 230.704 238.828C228.652 235.815 225.487 233.74 221.905 233.061C218.323 232.381 214.618 233.152 211.604 235.205L203.723 240.793L203.542 241.199L205.802 239.597Z" fill="black"/>
<path d="M184.816 293.735C181.859 293.735 178.968 292.858 176.509 291.215C174.05 289.571 172.133 287.236 171.001 284.504C169.87 281.771 169.574 278.764 170.151 275.864C170.728 272.963 172.152 270.299 174.243 268.207L186.932 255.26C188.32 253.87 189.968 252.766 191.783 252.013C193.598 251.26 195.543 250.872 197.507 250.872C199.472 250.871 201.417 251.257 203.233 252.009C205.048 252.76 206.697 253.862 208.086 255.251C208.309 255.478 208.433 255.784 208.431 256.102C208.43 256.42 208.303 256.724 208.078 256.949C207.853 257.174 207.549 257.3 207.231 257.302C206.913 257.303 206.608 257.179 206.381 256.957C204.029 254.605 200.839 253.284 197.513 253.284C194.187 253.284 190.998 254.605 188.646 256.957C186.782 263.528 182.755 268.037 175.957 269.904C173.604 272.255 172.281 275.444 172.279 278.771C172.278 282.097 173.597 285.288 175.948 287.641C178.299 289.994 181.488 291.317 184.814 291.319C188.14 291.32 191.331 290 193.684 287.649C193.409 284.954 194.198 282.419 200.371 280.704C200.48 280.585 200.611 280.489 200.757 280.422C200.904 280.354 201.062 280.317 201.223 280.311C201.384 280.306 201.544 280.333 201.695 280.391C201.845 280.449 201.983 280.536 202.099 280.648C202.215 280.76 202.307 280.893 202.371 281.042C202.434 281.19 202.467 281.349 202.468 281.51C202.469 281.671 202.438 281.831 202.376 281.98C202.314 282.128 202.223 282.263 202.108 282.376L195.406 289.336C194.02 290.733 192.37 291.841 190.553 292.595C188.735 293.35 186.786 293.736 184.818 293.732L184.816 293.735Z" fill="white"/>
<path d="M205.417 275.419C203.453 275.424 201.507 275.04 199.692 274.288C197.877 273.536 196.23 272.432 194.844 271.039C194.618 270.812 194.491 270.506 194.491 270.186C194.491 269.866 194.618 269.559 194.845 269.333C195.071 269.107 195.377 268.98 195.697 268.98C196.017 268.98 196.324 269.107 196.55 269.333C197.715 270.498 199.097 271.422 200.619 272.052C202.14 272.682 203.771 273.007 205.418 273.007C207.065 273.007 208.695 272.682 210.217 272.052C211.738 271.422 213.121 270.498 214.285 269.333C215.892 259.651 222.444 258.285 228.139 255.478C229.304 254.314 230.228 252.931 230.858 251.409C231.488 249.888 231.812 248.257 231.812 246.61C231.812 244.963 231.488 243.332 230.857 241.81C230.227 240.289 229.303 238.906 228.139 237.742C226.974 236.577 225.592 235.653 224.07 235.023C222.549 234.393 220.918 234.069 219.271 234.069C217.624 234.069 215.993 234.393 214.472 235.024C212.95 235.654 211.568 236.578 210.403 237.742C208.817 242.313 207.264 246.938 202.545 245.601C202.318 245.824 202.013 245.948 201.695 245.946C201.377 245.945 201.073 245.818 200.848 245.593C200.623 245.368 200.496 245.064 200.495 244.746C200.493 244.428 200.617 244.123 200.84 243.896L208.698 236.037C210.084 234.636 211.733 233.522 213.55 232.76C215.368 231.998 217.318 231.603 219.288 231.598C221.259 231.592 223.211 231.977 225.033 232.728C226.855 233.48 228.51 234.584 229.903 235.978C231.297 237.371 232.401 239.026 233.152 240.848C233.904 242.67 234.288 244.622 234.283 246.593C234.277 248.564 233.882 250.514 233.12 252.332C232.359 254.149 231.245 255.798 229.844 257.184L215.99 271.039C214.605 272.432 212.957 273.536 211.143 274.288C209.328 275.04 207.382 275.424 205.417 275.419Z" fill="white"/>
<path d="M250.973 234.032C248.61 230.018 245.766 226.307 242.504 222.981C241.775 222.242 241.025 221.518 240.257 220.814C239.831 220.425 239.4 220.043 238.963 219.669C238.131 218.953 237.275 218.262 236.402 217.595C226.549 210.057 214.485 205.98 202.079 205.994C170.83 205.994 145.402 231.42 145.402 262.674C145.401 266.12 145.714 269.56 146.339 272.949C146.34 272.968 146.342 272.987 146.347 273.005C146.632 274.561 146.986 276.096 147.396 277.604C150.3 288.244 156.246 297.806 164.504 305.116C172.762 312.427 182.973 317.169 193.887 318.761C204.8 320.353 215.94 318.726 225.943 314.08C235.945 309.433 244.374 301.969 250.197 292.602C250.981 291.34 251.718 290.045 252.408 288.719C256.809 280.225 258.987 270.754 258.736 261.19C258.485 251.627 255.814 242.283 250.973 234.032ZM202.079 318.551C194.741 318.553 187.474 317.11 180.694 314.303C173.914 311.496 167.754 307.38 162.565 302.191C157.377 297.002 153.261 290.841 150.454 284.061C147.647 277.28 146.204 270.013 146.206 262.675C146.206 231.862 171.272 206.799 202.079 206.799C209.534 206.803 216.913 208.299 223.78 211.2C230.648 214.101 236.865 218.348 242.066 223.69C243.422 225.075 244.702 226.532 245.9 228.055C247.087 229.546 248.194 231.099 249.217 232.707C253.481 239.406 256.267 246.937 257.39 254.799C258.513 262.66 257.947 270.671 255.728 278.296C255.234 280 254.657 281.669 254.004 283.305C253.351 284.941 252.621 286.553 251.818 288.112C247.116 297.261 239.989 304.939 231.217 310.308C222.444 315.677 212.364 318.528 202.079 318.551Z" fill="#3F3D56"/>
<path d="M182.527 264.086C183.193 264.086 183.733 263.546 183.733 262.88C183.733 262.214 183.193 261.674 182.527 261.674C181.861 261.674 181.321 262.214 181.321 262.88C181.321 263.546 181.861 264.086 182.527 264.086Z" fill="#6C63FF"/>
<path d="M220.714 263.282C221.38 263.282 221.92 262.742 221.92 262.076C221.92 261.41 221.38 260.87 220.714 260.87C220.048 260.87 219.508 261.41 219.508 262.076C219.508 262.742 220.048 263.282 220.714 263.282Z" fill="#6C63FF"/>
<path d="M234.635 226.855C234.594 226.266 234.682 225.674 234.894 225.123C235.106 224.571 235.436 224.073 235.862 223.662C236.287 223.252 236.797 222.94 237.356 222.749C237.915 222.557 238.509 222.49 239.097 222.553L245.222 209.559L249.106 215.934L242.694 227.295C242.523 228.275 241.999 229.159 241.22 229.778C240.441 230.397 239.462 230.709 238.469 230.655C237.476 230.601 236.537 230.184 235.83 229.483C235.123 228.783 234.698 227.848 234.635 226.855V226.855Z" fill="#9F616A"/>
<path d="M251.288 158.887L253.81 155.597C253.81 155.597 259.956 154.346 261 162.788L260.341 200.32L246.873 221.519L238.128 219.286L249.564 194.102L251.288 158.887Z" fill="#E4E4E4"/>
</g>
<defs>
<clipPath id="clip0_1588_59">
<rect width="261" height="343" fill="white"/>
</clipPath>
</defs>
</svg>
